if (_typeface_js && _typeface_js.loadFace) _typeface_js.loadFace({"glyphs":{"0":{"ha":639,"x_min":0,"x_max":667,"o":"m 0 732 l 168 731 q 63 465 63 588 q 81 340 63 396 q 136 236 99 285 q 307 144 206 144 q 496 243 417 144 q 572 479 572 336 q 565 582 572 546 l 544 690 l 474 732 l 667 732 l 667 775 l 0 775 l 0 732 m 419 274 q 300 186 369 189 q 207 228 247 183 q 157 322 174 265 q 146 410 146 363 q 174 561 146 492 q 258 704 201 631 l 193 732 l 432 731 q 468 479 468 675 q 443 316 468 358 q 419 274 419 274 "},"1":{"ha":861,"x_min":1,"x_max":882,"o":"m 219 367 q 160 410 185 413 q 76 385 113 410 q 35 311 35 357 q 45 244 35 275 q 71 193 56 214 q 114 155 96 165 q 160 144 132 144 q 301 172 236 144 l 338 117 q 379 74 350 96 q 460 38 415 38 q 533 64 500 38 q 565 131 565 90 q 564 167 565 156 q 538 226 558 213 l 539 221 l 542 214 l 542 204 l 544 193 q 538 163 542 172 q 514 136 529 147 q 446 115 485 115 q 383 135 414 115 q 335 186 353 154 q 483 271 419 215 q 538 374 538 319 q 525 429 538 401 q 364 564 481 529 q 650 599 592 564 l 650 144 q 749 74 675 97 q 742 135 742 99 l 740 425 l 742 474 q 744 501 742 483 l 749 732 l 882 732 l 882 775 l 1 775 l 1 732 l 735 732 l 664 704 l 656 668 q 465 640 597 640 l 426 640 q 203 668 286 640 l 196 668 l 192 664 l 189 657 l 188 649 l 194 621 l 217 578 q 317 550 278 565 q 397 510 363 532 q 468 410 468 463 q 454 367 468 389 q 361 288 424 321 q 288 256 331 271 l 271 288 l 254 318 l 236 344 l 219 367 m 204 232 l 140 226 l 121 229 l 106 239 l 93 253 l 89 269 l 94 294 q 111 314 100 304 l 136 326 q 168 332 151 332 l 188 326 l 211 310 l 233 283 l 258 249 q 204 232 229 235 "},"2":{"ha":736,"x_min":0,"x_max":742,"o":"m 117 457 q 158 450 144 451 q 74 325 74 407 q 90 256 74 288 q 144 196 113 221 q 313 144 210 143 l 385 146 l 425 150 q 453 89 440 110 q 578 1 507 1 q 615 11 600 4 q 647 43 635 24 q 676 144 676 81 q 660 111 671 126 l 638 86 q 578 65 611 65 q 549 71 560 65 q 467 158 511 85 q 546 186 531 176 q 633 246 600 208 q 663 311 663 276 q 656 356 663 333 q 564 425 631 425 q 432 387 486 425 q 382 297 378 349 l 385 257 q 397 226 389 239 q 344 215 381 219 q 326 213 339 215 l 258 213 l 204 218 l 182 226 q 126 264 151 236 q 117 297 117 279 l 122 319 q 140 344 129 333 l 168 367 l 208 390 q 300 425 246 413 q 397 436 347 436 q 326 507 354 507 l 288 500 l 221 479 l 186 482 l 157 492 l 136 506 q 131 521 131 513 q 146 558 131 542 q 197 590 161 575 q 260 611 239 607 q 354 619 317 622 l 393 617 l 426 608 q 451 594 446 601 q 467 578 463 589 l 479 567 q 496 564 485 564 l 507 567 l 564 607 l 564 732 l 742 732 l 742 775 l 0 775 l 0 732 l 550 732 l 467 704 l 467 619 q 354 689 421 689 q 292 686 318 689 q 136 647 201 676 q 49 549 49 607 q 57 508 51 522 q 117 457 68 479 m 632 364 q 635 354 633 363 q 619 322 632 338 q 542 272 594 293 l 535 269 q 511 261 519 264 l 425 235 q 488 333 425 281 q 606 382 547 382 l 617 379 l 626 374 l 632 364 "},"3":{"ha":772,"x_min":6,"x_max":783,"o":"m 69 535 q 151 474 92 499 q 251 450 204 451 l 185 407 q 133 363 160 392 q 90 283 90 317 q 106 214 90 247 q 279 101 153 101 q 353 111 307 101 q 424 143 393 124 q 532 257 490 185 l 532 396 q 464 294 497 336 q 311 174 394 211 q 238 158 276 158 l 204 163 l 178 176 q 154 221 154 193 q 221 333 154 272 q 247 358 238 350 q 349 425 300 400 l 404 451 l 350 521 q 251 488 286 488 l 208 492 l 172 506 q 140 549 140 526 q 158 599 140 574 q 364 704 213 678 l 342 732 l 532 732 l 532 775 l 6 775 l 6 732 l 181 731 l 128 699 l 89 663 q 56 578 56 621 q 69 535 56 557 m 783 744 l 775 781 l 433 781 l 433 738 l 629 738 l 546 708 l 542 667 l 540 278 l 546 150 q 643 79 588 101 q 632 243 633 174 q 629 431 629 433 l 632 583 l 643 738 l 783 744 "},"4":{"ha":903,"x_min":-32,"x_max":914,"o":"m 122 335 l 99 332 l 92 335 l 76 346 l 90 367 q 108 382 96 376 l 128 392 l 147 396 q 157 392 150 396 l 161 382 l 156 361 q 143 346 153 353 l 122 335 m 592 676 q 581 682 589 679 q 321 621 431 682 q 218 479 218 563 q 240 395 218 431 q 311 328 261 360 q 539 269 403 269 q 526 226 533 243 q 446 128 500 165 q 258 74 368 74 q 224 80 236 74 q 210 93 211 86 q 221 135 210 114 q 338 199 256 199 l 350 201 q 357 213 353 204 l 354 218 l 350 224 l 340 231 l 329 242 l 317 247 l 306 251 l 293 254 l 281 256 l 254 249 l 226 244 q 196 242 217 242 l 161 242 l 121 247 q 67 293 81 265 l 63 325 q 81 317 68 319 l 111 311 l 146 315 l 176 329 q 204 374 204 347 l 200 392 q 188 407 197 400 l 168 418 q 147 425 160 425 q 125 425 139 425 q 38 396 83 422 q -7 332 -7 369 q 42 247 -7 281 q 161 214 85 215 l 218 213 q 153 144 153 188 q 164 100 153 122 q 200 63 181 78 q 315 29 253 29 q 547 169 474 29 q 581 263 574 219 q 610 160 593 200 q 660 75 626 119 q 790 1 715 1 q 836 29 821 6 l 849 60 q 854 97 854 74 l 851 119 l 847 144 q 749 101 811 101 q 712 113 728 104 q 678 146 696 122 q 615 263 639 192 q 703 286 679 276 q 775 328 742 303 q 833 425 833 372 q 803 494 828 472 q 733 521 772 521 q 664 510 697 521 q 551 368 551 469 l 551 356 l 553 346 q 529 340 543 340 l 490 340 l 456 339 q 418 340 436 338 q 328 368 371 346 q 272 431 272 394 q 279 458 275 449 l 300 489 q 333 518 314 503 q 478 590 404 571 q 581 606 535 606 q 651 592 633 606 l 672 601 l 703 617 l 717 625 l 726 633 q 732 640 729 635 l 733 650 l 733 732 l 914 732 l 914 775 l -32 775 l -32 732 l 719 732 l 638 704 l 638 626 l 622 642 l 607 661 l 592 676 m 801 447 l 804 436 q 782 406 801 418 q 747 389 774 400 q 635 360 690 365 l 594 354 l 597 372 l 608 392 l 625 411 l 647 431 q 701 456 678 447 q 763 465 732 465 l 779 463 l 793 457 q 801 447 796 454 "},"5":{"ha":688,"x_min":-11,"x_max":707,"o":"m 133 467 q 154 457 146 461 q 189 450 171 453 l 136 418 l 97 382 q 64 297 64 340 q 85 208 64 246 q 150 139 107 171 q 358 74 238 74 q 493 99 436 74 q 607 179 556 126 q 707 425 707 282 q 658 588 707 521 q 546 654 610 654 q 486 636 510 647 q 399 529 399 596 q 440 403 399 453 q 539 354 481 354 q 650 403 610 354 q 522 206 628 282 q 274 131 415 131 q 215 138 242 131 q 132 197 156 154 q 121 242 121 218 q 188 352 121 301 q 364 425 256 403 l 360 431 l 354 439 l 350 444 l 344 451 l 328 468 l 301 493 q 238 479 282 479 l 217 479 l 182 485 l 153 500 q 126 549 126 524 q 183 626 126 589 q 315 676 240 663 l 265 732 l 707 732 l 707 775 l -11 775 l -11 732 l 197 731 l 135 696 q 89 658 108 678 q 50 578 50 619 q 60 535 53 554 q 133 467 82 494 m 612 447 q 525 410 579 414 l 497 414 q 458 446 468 424 l 454 472 q 464 506 457 494 q 501 542 481 529 q 596 578 546 578 l 613 574 l 628 564 l 639 549 q 644 529 644 539 q 628 463 644 479 q 612 447 612 447 "},"6":{"ha":701,"x_min":17,"x_max":731,"o":"m 448 628 q 379 644 421 646 q 160 563 249 640 q 68 361 68 481 q 88 247 68 296 q 151 153 107 197 q 343 69 231 69 q 451 82 404 69 q 557 122 518 100 l 600 147 l 633 174 q 663 222 663 197 q 607 339 663 275 q 515 194 607 263 q 318 126 422 126 q 179 174 236 126 q 122 292 122 222 q 206 492 122 408 q 407 575 289 575 q 483 542 469 575 l 488 532 l 500 510 l 506 500 l 511 499 l 518 500 l 529 506 l 535 510 l 542 514 l 547 517 l 553 521 q 601 585 601 542 l 601 722 l 731 722 l 731 764 l 17 764 l 17 722 l 588 722 l 497 688 l 497 575 q 461 619 475 610 q 448 628 448 628 "},"7":{"ha":757,"x_min":8,"x_max":764,"o":"m 457 656 q 449 660 456 658 q 172 573 288 660 q 57 368 57 486 q 78 254 57 304 q 150 158 100 204 q 378 74 243 74 q 496 90 446 74 q 550 115 518 97 q 663 219 626 154 q 686 311 686 261 q 683 350 686 332 q 553 535 661 497 l 568 546 l 579 553 l 585 558 l 588 565 l 588 732 l 764 732 l 764 775 l 8 775 l 8 732 l 572 732 l 490 704 l 490 606 l 479 625 l 468 643 l 457 656 m 529 204 q 321 131 449 133 q 173 183 235 128 q 111 311 111 238 l 117 360 q 164 457 132 421 l 204 503 q 300 571 242 544 q 406 592 350 592 l 431 589 l 456 585 l 479 575 l 504 564 l 447 558 q 397 542 417 551 q 357 493 357 522 l 360 474 l 371 450 q 496 507 436 507 q 581 467 547 507 q 615 382 615 428 q 611 338 615 363 q 529 204 596 263 "},"8":{"ha":813,"x_min":10,"x_max":819,"o":"m 97 569 l 82 556 q 61 465 61 524 q 88 304 61 374 q 172 179 114 235 q 458 74 281 74 q 657 141 575 74 q 739 297 739 208 q 736 342 739 322 q 694 447 728 400 q 586 507 651 507 l 526 501 l 472 489 l 425 465 q 390 436 407 457 q 357 467 367 454 q 347 501 347 485 l 350 514 l 360 526 l 375 538 l 397 550 q 453 572 425 565 l 592 606 q 644 629 624 618 q 690 683 690 654 l 628 732 l 819 732 l 819 775 l 10 775 l 10 732 l 600 731 q 600 718 604 725 q 583 703 596 711 q 490 667 550 681 q 393 642 410 649 q 329 613 349 625 q 278 542 278 578 q 290 479 278 507 q 333 427 308 449 q 388 394 357 406 q 458 382 418 382 q 488 400 479 396 q 614 431 549 431 l 644 425 q 689 383 679 411 q 696 354 696 371 q 603 203 696 263 q 376 144 511 144 l 324 150 l 272 167 q 228 193 246 179 l 193 226 q 124 450 124 313 q 194 619 124 549 l 156 603 l 122 586 l 97 569 "},"9":{"ha":757,"x_min":-7,"x_max":757,"o":"m 411 636 q 399 640 408 639 q 146 556 250 640 q 42 354 42 472 q 131 155 42 236 q 344 74 221 74 q 593 141 493 74 q 693 297 693 208 q 681 354 693 324 q 607 425 660 407 q 554 436 585 436 q 456 422 499 436 q 301 256 301 374 q 308 228 304 238 l 331 201 l 364 176 l 407 158 q 385 221 385 174 q 400 283 385 251 q 475 360 421 329 q 579 388 525 388 q 601 383 593 388 l 621 374 l 632 358 l 636 339 q 542 190 636 250 q 315 131 449 131 q 182 183 238 131 q 126 311 126 236 q 144 411 126 364 q 281 550 182 510 q 378 569 328 569 l 388 568 l 399 568 q 407 565 400 567 l 418 564 l 436 557 l 475 535 l 485 536 l 504 544 l 528 553 l 554 565 l 554 732 l 757 732 l 757 775 l -7 775 l -7 732 l 539 732 l 461 704 l 461 578 l 443 604 l 426 624 l 411 636 "}," ":{"ha":458,"x_min":0,"x_max":0,"o":""},"!":{"ha":521,"x_min":44,"x_max":472,"o":"m 94 550 q 186 501 131 514 l 126 464 l 82 432 q 44 382 44 406 q 57 345 44 364 q 92 310 69 326 q 214 256 136 274 l 268 229 q 313 197 293 217 q 342 156 332 176 q 353 115 353 136 l 349 92 l 339 75 l 438 74 l 447 96 l 451 108 q 401 206 451 164 q 268 283 360 247 l 215 304 l 176 326 l 151 347 q 143 368 143 360 q 296 465 143 392 q 367 506 343 488 l 424 549 q 472 635 472 597 q 440 715 472 679 q 363 763 407 751 q 296 774 335 774 q 126 733 194 774 q 58 635 58 693 q 76 568 58 586 q 94 550 94 550 m 208 529 l 206 535 l 181 540 q 147 581 157 554 l 143 611 q 206 697 143 663 q 353 731 269 731 l 374 726 l 393 717 l 406 701 l 410 682 q 356 606 407 647 q 206 521 304 564 l 208 529 "},"\"":{"ha":142,"x_min":-560,"x_max":82,"o":"m -317 63 q -379 69 -353 71 q -506 32 -456 67 q -560 -54 -560 -6 q -533 -133 -560 -96 q -465 -183 -506 -171 q -406 -194 -439 -194 q -361 -187 -386 -194 l -318 -167 l -299 -153 l -285 -139 l -276 -124 l -274 -110 q -282 -74 -274 -90 q -310 -42 -296 -54 l -319 -33 l -335 -24 l -343 -21 l -339 -40 l -337 -62 q -347 -89 -340 -78 l -375 -114 l -396 -125 l -415 -133 l -435 -136 l -456 -137 q -478 -133 -467 -139 l -499 -124 l -511 -108 q -517 -90 -517 -99 q -468 -22 -517 -50 q -351 7 -419 7 q -254 -17 -307 7 q -133 -89 -182 -49 l -76 -136 l -31 -185 l -11 -207 l 4 -232 l 17 -254 l 24 -278 l 82 -236 q -110 -32 42 -137 q -149 -7 -133 -15 q -229 33 -201 21 q -254 44 -236 38 q -299 58 -281 54 q -317 63 -317 63 "},"#":{"ha":597,"x_min":53,"x_max":565,"o":"m 257 763 l 174 731 l 135 710 l 106 689 q 82 668 88 676 l 68 649 l 65 643 l 65 638 q 138 564 65 596 l 135 568 l 132 578 l 138 599 l 153 621 l 178 643 l 214 667 l 258 686 q 301 700 281 696 l 342 708 q 383 711 356 711 l 411 706 q 461 640 461 685 q 389 554 461 603 q 200 465 329 513 l 194 463 l 189 461 l 182 458 l 176 456 l 168 450 l 165 444 q 174 413 165 429 l 200 360 q 375 410 265 410 q 433 401 400 410 q 506 357 489 388 q 517 325 517 342 q 496 260 517 289 q 346 171 450 196 q 236 158 283 154 l 185 163 q 136 175 168 164 l 96 194 l 68 221 q 53 207 56 221 l 57 188 l 71 160 q 82 138 78 151 l 96 115 q 236 74 151 74 q 472 136 372 74 q 565 283 565 194 q 536 377 565 332 q 463 440 507 422 q 397 458 431 458 l 443 481 q 481 514 467 497 q 508 592 508 550 q 494 663 508 626 q 428 744 474 714 q 328 774 383 774 q 257 763 297 774 "},"$":{"ha":806,"x_min":50,"x_max":749,"o":"m 183 718 l 126 758 q 50 689 71 728 q 344 521 226 657 l 278 449 q 250 415 261 431 q 189 269 189 326 q 202 194 189 231 q 239 129 215 157 q 350 74 282 74 q 425 86 392 74 q 490 128 467 106 q 530 184 514 150 q 546 256 546 218 q 539 314 546 282 l 518 372 q 483 429 499 411 l 435 488 l 501 540 q 574 588 528 561 l 651 632 l 735 675 l 736 675 l 744 672 l 749 668 q 693 758 719 743 q 372 542 489 665 l 311 606 l 247 667 l 183 718 m 421 189 q 350 147 388 153 q 322 144 342 146 l 292 150 q 268 168 278 156 q 246 226 246 190 q 407 458 246 322 q 463 297 463 392 q 421 189 463 232 "},"%":{"ha":750,"x_min":107,"x_max":693,"o":"m 358 775 l 289 774 q 214 731 247 754 q 118 611 144 679 q 107 549 107 582 q 124 463 107 497 q 178 394 142 428 q 344 332 246 332 q 437 347 392 332 q 540 396 482 363 l 576 351 q 603 307 593 331 q 625 240 622 261 l 625 213 q 610 179 625 197 q 560 131 575 144 l 533 107 l 526 99 l 526 93 q 603 51 560 51 q 638 58 626 54 q 693 158 693 86 q 690 194 693 178 q 560 417 667 332 l 599 443 l 628 476 q 651 549 651 513 q 628 610 647 586 q 600 629 614 624 q 568 635 586 635 q 503 608 524 629 q 478 549 478 583 l 483 513 q 499 488 493 493 q 274 410 438 410 q 238 417 250 413 q 208 439 221 425 q 183 507 183 467 q 265 661 183 588 q 442 731 343 731 q 358 775 403 769 "},"&":{"ha":688,"x_min":71,"x_max":638,"o":"m 151 458 q 204 444 172 447 q 153 418 175 435 q 85 297 85 367 q 167 138 85 203 q 363 74 249 74 q 507 110 440 74 q 638 214 583 151 l 594 283 q 535 226 569 253 q 388 158 467 175 q 308 150 336 147 l 243 156 q 189 176 214 164 q 139 242 139 200 q 193 328 139 285 q 476 460 290 407 l 419 529 q 229 472 303 472 l 193 478 l 161 493 q 133 542 133 518 l 139 569 q 160 599 146 582 q 171 611 163 603 l 193 626 q 238 654 211 642 l 293 681 q 336 697 318 693 q 393 707 376 706 l 447 711 l 476 703 q 390 774 431 776 l 338 769 l 285 758 l 231 740 l 179 717 l 133 689 l 99 660 l 78 632 q 71 606 71 619 q 81 542 71 581 q 108 490 94 510 q 140 463 129 468 q 151 458 151 458 "},"'":{"ha":0,"x_min":-681,"x_max":-51,"o":"m -597 -46 q -561 24 -592 3 q -585 22 -578 24 q -646 -4 -619 15 q -681 -74 -681 -39 q -654 -153 -681 -115 q -474 -262 -600 -231 q -346 -278 -414 -278 q -134 -219 -217 -278 q -51 -81 -51 -160 q -62 -22 -51 -53 q -93 28 -74 8 q -193 74 -131 74 l -222 71 l -251 63 l -281 50 l -311 33 q -374 -46 -374 -10 l -368 -75 q -356 -104 -365 -90 l -333 -129 q -304 -150 -324 -140 q -311 -136 -307 -147 l -318 -117 q -265 -28 -318 -72 l -240 -7 l -215 6 q -164 15 -196 15 l -144 10 l -128 -1 l -117 -22 q -114 -46 -114 -31 q -135 -118 -114 -87 q -257 -208 -174 -175 q -408 -236 -331 -236 q -542 -178 -487 -236 q -597 -46 -597 -121 "},"(":{"ha":625,"x_min":61,"x_max":592,"o":"m 311 772 q 242 788 275 788 q 172 775 203 786 q 92 714 122 756 q 61 619 61 672 l 65 582 q 78 544 67 564 l 99 506 l 129 468 q 313 339 193 390 q 465 225 408 282 q 522 131 522 168 q 515 99 519 110 q 438 57 496 57 l 410 64 l 375 88 l 399 50 q 428 24 407 36 q 494 1 458 1 q 532 8 521 4 q 565 33 551 18 q 592 101 592 63 q 521 226 592 156 q 333 368 450 297 l 244 422 q 179 474 218 439 q 124 556 124 524 q 135 619 124 592 q 197 696 153 667 q 290 725 240 725 l 318 719 q 340 706 333 714 q 361 660 361 693 q 351 610 361 636 q 235 529 319 529 q 203 538 219 529 l 165 564 q 299 465 224 465 q 388 503 353 465 q 424 592 424 542 q 371 731 424 672 q 329 764 347 756 q 311 772 311 772 "},")":{"ha":660,"x_min":63,"x_max":621,"o":"m 482 742 q 383 774 435 774 q 156 679 249 772 q 63 450 63 586 q 140 184 63 294 q 328 74 218 74 q 535 176 450 74 q 621 425 621 278 q 603 557 621 492 q 482 742 565 685 m 478 240 q 272 144 393 149 q 211 158 243 143 q 129 267 149 197 q 117 354 117 307 q 138 488 117 432 q 203 600 161 550 q 411 703 290 703 q 472 686 443 703 q 554 571 528 653 q 567 479 567 531 q 478 240 567 338 "},"*":{"ha":715,"x_min":68,"x_max":649,"o":"m 561 767 l 543 774 q 440 739 486 757 q 200 581 297 681 q 68 283 68 444 q 132 132 68 193 q 278 74 190 74 q 451 113 365 74 q 592 221 528 147 l 594 225 l 597 228 l 599 232 l 600 235 l 582 256 l 567 279 l 549 301 q 538 311 546 306 l 524 297 q 458 232 493 260 q 317 156 383 171 q 235 144 264 142 l 185 149 l 144 164 q 110 213 110 182 q 265 535 110 390 q 649 717 417 675 l 633 725 l 619 733 l 603 742 l 589 753 l 561 767 "},"+":{"ha":0,"x_min":-199,"x_max":-71,"o":"m -71 858 l -135 922 l -199 858 l -135 794 l -71 858 "},",":{"ha":340,"x_min":58,"x_max":196,"o":"m 175 183 q 128 208 150 213 l 100 203 q 63 167 71 192 l 58 140 l 63 113 q 94 74 72 83 l 121 69 q 118 29 121 44 q 79 -35 110 -22 l 100 -62 q 140 -27 118 -51 q 171 10 163 -3 q 189 61 186 38 q 196 118 196 90 l 190 153 q 175 183 183 172 "},"-":{"ha":313,"x_min":63,"x_max":249,"o":"m 249 -65 q 153 131 181 39 q 125 347 125 224 q 153 563 125 471 q 249 760 181 654 l 238 769 q 103 578 143 676 q 63 347 63 481 q 103 116 63 214 q 238 -75 143 18 l 249 -65 "},".":{"ha":522,"x_min":286,"x_max":408,"o":"m 286 3 l 408 3 l 408 699 l 286 699 l 286 3 "},"/":{"ha":715,"x_min":11,"x_max":713,"o":"m 219 549 q 174 564 197 565 q 85 526 115 563 q 49 436 49 496 q 95 308 49 361 q 217 256 142 256 l 246 256 q 272 258 256 258 l 294 263 l 315 269 q 415 72 356 154 q 517 1 467 1 q 562 13 538 1 q 603 44 586 24 q 635 144 638 89 l 633 172 l 632 196 l 628 214 l 621 226 l 610 239 l 592 247 l 588 242 l 592 222 l 593 199 q 586 164 590 175 q 563 133 578 147 q 496 108 535 108 q 454 119 472 111 q 413 157 429 135 q 342 283 374 193 q 428 329 392 303 q 538 476 506 386 q 553 564 556 528 l 549 617 l 538 665 l 518 704 q 496 732 511 718 l 713 732 l 713 775 l 468 774 q 418 806 450 796 q 335 815 386 815 q 215 775 267 815 q 146 668 164 735 q 240 714 203 701 q 329 731 293 731 q 452 680 401 731 q 503 564 503 629 q 492 503 503 532 q 394 396 465 440 q 321 360 357 372 q 299 442 313 407 q 219 549 265 524 m 247 338 l 196 332 l 169 338 q 136 379 144 351 l 132 410 q 136 429 132 421 l 150 446 l 168 460 q 188 465 179 465 q 224 456 206 465 q 278 397 265 433 q 293 354 289 382 q 247 338 267 340 m 103 732 l 139 775 l 11 775 l 11 732 l 103 732 "},":":{"ha":688,"x_min":-18,"x_max":706,"o":"m 192 549 q 146 564 169 565 q 57 526 88 563 q 21 436 21 496 q 69 308 21 361 q 188 256 118 256 l 217 256 q 243 258 226 258 l 265 263 l 286 269 q 386 72 326 154 q 488 1 438 1 q 533 11 508 1 q 607 144 607 50 q 593 226 607 210 l 582 240 q 564 247 575 247 l 558 242 l 561 231 l 564 221 l 564 210 l 565 199 q 558 163 563 175 q 468 108 533 108 q 426 119 444 111 q 385 157 401 135 q 329 240 350 189 l 313 283 q 510 476 463 340 q 525 564 528 529 l 521 617 l 510 665 l 490 704 q 468 732 483 718 l 706 732 l 706 775 l 440 774 q 390 806 422 796 q 307 815 358 815 q 186 775 239 815 q 117 668 133 735 q 211 714 174 701 q 300 731 264 731 q 423 683 372 731 q 474 564 474 635 q 463 503 474 532 q 321 371 428 419 q 293 360 304 364 q 269 446 282 410 q 192 549 243 521 m 219 338 l 168 332 l 142 338 q 107 379 115 353 l 103 410 l 107 426 l 121 446 l 140 460 q 160 465 151 465 q 197 456 179 465 q 264 354 251 426 q 219 338 240 342 m 75 732 l 111 775 l -18 775 l -18 732 l 75 732 m 706 467 l 706 507 l 606 501 q 550 488 565 494 l 556 426 q 572 382 561 400 l 674 454 l 690 463 l 706 467 "},";":{"ha":972,"x_min":-3,"x_max":972,"o":"m 206 549 q 161 564 183 564 q 71 528 108 563 q 33 436 33 493 q 81 310 33 364 q 201 256 129 256 l 232 256 l 257 258 l 279 263 l 300 269 q 403 72 347 146 q 503 1 454 1 q 549 11 524 1 q 622 144 622 50 l 618 183 l 607 218 q 572 249 590 249 l 576 226 q 579 199 579 217 q 553 133 574 154 q 494 108 528 108 q 447 119 472 108 q 328 283 364 175 q 414 331 378 303 q 522 475 493 389 q 538 564 538 519 q 489 732 538 674 l 818 732 l 742 689 l 736 647 l 733 563 l 733 507 l 635 501 q 579 488 594 494 l 585 432 l 600 388 q 688 446 644 421 q 733 465 721 465 l 733 344 l 736 192 l 742 144 q 838 74 778 92 l 833 133 l 832 517 q 833 565 832 535 q 835 615 835 603 l 836 696 l 838 732 l 972 732 l 972 775 l 461 774 q 392 804 431 793 q 319 815 367 815 q 219 789 269 815 q 139 668 139 747 q 225 715 182 699 q 314 731 268 731 q 438 683 388 731 q 489 564 489 635 q 381 396 489 467 q 306 360 349 375 q 283 440 294 411 q 206 549 253 521 m 232 338 l 181 332 l 156 338 q 122 379 131 351 l 118 410 l 121 432 l 133 450 l 150 461 l 172 465 q 226 444 200 465 q 263 397 253 424 q 278 354 274 379 q 232 338 251 340 m 90 732 l 124 775 l -3 775 l -3 732 l 90 732 "},"<":{"ha":493,"x_min":47,"x_max":458,"o":"m 257 774 q 146 743 203 774 q 115 725 121 731 l 100 713 l 86 700 l 75 686 l 65 674 l 51 649 l 47 626 l 51 608 l 64 586 l 85 557 l 115 521 l 115 526 l 114 533 q 165 642 114 592 q 297 703 228 703 l 340 697 l 378 683 q 410 635 410 663 q 389 569 410 603 q 325 507 375 546 l 257 454 l 207 403 q 188 378 196 392 q 165 311 164 336 l 167 290 l 174 272 l 182 260 l 192 256 l 197 257 l 206 263 q 325 396 224 325 q 458 564 458 489 q 424 681 458 628 q 332 758 390 733 q 257 774 296 774 m 182 206 l 160 186 q 138 144 138 161 l 143 125 l 160 100 l 182 79 l 200 74 l 217 79 l 239 100 l 256 125 q 263 144 263 136 q 256 163 260 157 l 239 186 l 218 206 q 200 213 211 213 q 182 206 186 210 "},"=":{"ha":361,"x_min":153,"x_max":290,"o":"m 221 -8 q 270 10 250 -8 q 290 58 290 29 l 285 85 q 269 107 278 100 q 221 128 251 128 l 194 122 q 172 107 179 115 q 157 85 161 97 l 153 58 l 157 32 l 172 10 q 194 -4 182 0 l 221 -8 "},">":{"ha":701,"x_min":-117,"x_max":726,"o":"m 126 450 q -49 410 43 410 l -64 411 l -82 414 l -101 418 l -117 425 q -82 325 -110 378 q 42 343 -32 325 q 217 396 104 358 q 397 325 308 342 l 311 289 l 232 249 q 158 203 190 228 l 92 151 l 168 88 q 497 293 297 196 l 497 144 q 542 101 519 118 q 596 74 560 88 l 583 244 q 582 336 582 300 q 581 425 581 410 l 583 569 l 596 732 l 726 732 l 726 775 l 435 775 l 454 732 l 574 732 l 497 703 l 497 696 l 499 689 l 494 592 q 493 574 494 586 q 492 556 492 561 q 492 525 492 525 l 490 451 l 490 354 q 258 417 374 354 q 318 457 294 439 q 394 549 371 499 q 406 592 406 565 l 400 651 q 369 735 396 690 q 324 786 349 768 q 231 807 293 807 q 140 793 186 807 q 40 736 81 775 q -6 635 -6 692 q 71 488 -6 560 l 126 450 m 249 524 q 168 472 214 499 q 126 501 146 485 l 96 536 q 69 611 69 575 q 90 653 72 632 q 213 719 131 700 q 288 731 242 731 l 317 725 q 343 708 332 719 q 364 654 364 686 q 349 617 361 636 q 282 547 325 578 l 249 524 "},"?":{"ha":944,"x_min":8,"x_max":964,"o":"m 203 550 q 156 564 181 567 q 75 526 107 564 q 43 436 43 488 q 56 375 43 403 q 147 292 92 314 q 226 279 190 276 l 246 281 l 267 283 q 311 185 288 225 q 421 60 358 100 q 476 43 453 43 q 508 50 497 46 q 554 106 544 71 q 561 144 561 121 q 526 226 554 199 q 508 169 526 189 q 442 144 485 144 q 406 154 421 147 q 369 186 385 168 q 308 297 339 221 q 464 385 403 333 q 547 501 531 440 q 607 547 574 535 q 701 564 650 564 q 756 554 731 564 q 833 458 833 522 q 819 378 833 415 q 665 256 774 256 l 624 261 q 594 278 606 268 l 617 224 l 643 181 q 693 144 665 144 q 829 210 775 144 q 883 368 883 275 q 868 472 883 422 q 800 586 844 542 q 679 635 747 635 q 644 632 660 635 q 554 592 594 622 q 546 635 554 606 l 528 672 q 501 704 521 688 l 469 732 l 964 732 l 964 775 l 8 775 l 8 732 l 204 731 q 156 654 156 708 q 338 703 210 703 q 404 693 374 703 q 513 564 513 656 q 497 508 513 536 q 303 382 443 415 q 281 456 294 422 q 203 550 253 524 m 206 344 l 156 339 l 133 344 l 115 360 l 103 383 l 99 410 q 106 439 101 431 l 128 465 l 156 486 q 183 493 169 493 l 193 490 l 204 483 l 213 472 l 224 456 q 253 360 242 428 q 206 344 231 347 "},"@":{"ha":750,"x_min":56,"x_max":699,"o":"m 251 440 q 154 472 192 472 q 117 467 133 472 q 56 396 56 444 q 104 296 56 332 q 224 256 147 256 q 296 265 250 256 q 371 299 333 278 l 565 101 q 628 74 593 74 l 642 75 l 658 82 l 676 90 l 699 101 l 669 111 l 622 146 l 404 325 q 600 456 529 382 q 671 592 671 529 q 631 715 671 663 q 518 774 586 774 q 413 760 467 774 q 304 717 346 742 l 260 690 l 226 661 l 204 632 q 194 606 194 619 l 200 585 q 279 531 226 543 l 272 549 q 293 606 272 579 q 358 660 314 632 q 532 717 449 717 l 563 711 l 590 697 q 608 675 603 686 q 614 649 614 664 q 538 514 614 588 q 336 382 461 440 q 251 440 293 418 m 190 321 l 161 318 l 142 319 l 126 328 l 115 339 q 113 354 113 344 l 118 376 l 135 394 q 161 406 144 401 l 194 410 q 308 360 250 410 q 294 353 306 357 l 260 340 l 235 332 l 190 321 "},"A":{"ha":493,"x_min":13,"x_max":524,"o":"m 415 672 q 170 578 283 672 q 57 368 57 483 q 113 222 57 285 q 251 160 168 160 q 422 210 349 160 q 524 340 501 263 l 472 457 l 467 417 l 454 379 l 435 346 l 410 318 q 281 542 343 371 q 331 574 306 560 q 438 601 388 604 l 461 600 l 476 597 l 440 653 l 426 667 l 415 672 m 260 210 l 224 204 q 164 239 189 204 q 142 318 142 269 l 147 375 q 168 429 156 404 l 200 476 l 242 519 l 272 440 l 306 378 l 340 326 q 381 289 361 303 l 340 253 q 260 210 304 221 m 524 732 l 524 775 l 13 775 l 13 732 l 524 732 "},"B":{"ha":743,"x_min":-11,"x_max":749,"o":"m 68 481 q 147 435 100 451 q 176 425 160 429 q 71 283 71 365 q 143 185 71 229 q 315 144 207 144 q 513 257 444 144 l 513 144 q 618 74 549 101 l 606 244 q 604 336 604 300 q 603 425 603 410 l 606 569 l 618 732 l 749 732 l 749 775 l -11 775 l -11 732 l 365 732 l 281 704 l 281 635 l 265 656 q 250 671 257 668 q 233 679 242 679 l 218 682 q 183 679 197 682 q 90 638 142 671 q 29 549 26 586 l 31 532 l 39 515 l 50 497 l 68 481 m 396 249 q 281 190 338 199 q 239 186 261 188 l 206 190 l 179 206 q 156 256 156 226 q 172 307 156 282 q 289 390 204 356 q 379 417 335 410 l 376 424 l 372 433 l 364 447 l 358 465 q 322 497 342 497 l 315 496 l 310 493 q 196 458 267 453 l 160 461 l 131 472 q 111 490 117 481 q 106 507 106 499 q 117 549 106 528 q 239 611 149 611 l 269 606 l 296 593 l 310 583 q 379 621 339 583 l 379 732 l 589 732 l 519 703 l 513 471 l 513 425 q 396 249 469 311 "},"C":{"ha":1021,"x_min":-14,"x_max":1031,"o":"m 331 646 q 272 660 307 661 q 190 647 222 658 q 21 479 61 606 l 35 439 l 75 360 q 113 498 75 436 q 221 592 151 560 q 313 611 264 611 q 363 585 351 606 q 378 558 374 575 q 383 521 383 540 q 363 414 383 467 q 260 264 329 331 q 89 150 196 201 l 97 133 l 106 119 l 113 106 l 121 96 q 153 74 136 78 l 217 118 l 314 197 l 496 354 l 496 314 q 499 296 496 308 l 499 250 l 501 186 l 503 144 l 531 118 l 557 96 q 581 81 571 83 l 601 74 l 597 149 q 596 169 597 156 q 594 185 594 179 q 594 214 594 214 l 593 286 l 593 382 l 622 386 q 663 404 642 392 l 711 435 l 768 479 q 879 269 879 388 q 872 228 876 240 q 851 194 864 210 q 782 164 819 163 l 747 165 l 721 169 l 701 176 l 692 186 q 789 88 747 93 q 853 97 814 88 q 958 235 958 140 q 947 307 958 268 q 803 515 914 425 q 835 551 825 533 q 844 592 844 569 l 839 621 q 782 668 831 668 l 751 663 q 706 597 701 643 l 708 565 l 719 542 q 693 497 704 510 l 663 464 q 593 436 628 436 l 594 481 q 597 506 594 489 l 601 732 l 1031 732 l 1031 775 l -14 775 l -14 732 l 586 732 l 503 703 q 500 675 500 686 l 500 650 q 497 619 497 632 q 497 593 497 593 l 496 532 l 496 467 l 392 347 l 383 354 q 415 409 406 381 q 425 479 425 438 q 414 549 425 515 q 331 646 388 619 "},"D":{"ha":604,"x_min":1,"x_max":626,"o":"m 317 697 q 343 604 338 654 q 346 549 346 581 q 221 496 261 515 q 124 439 167 469 q 39 325 39 376 q 53 237 39 272 q 100 165 68 201 q 242 101 158 101 q 381 167 324 101 q 439 326 439 233 l 439 493 q 619 522 511 522 l 626 606 q 571 604 588 606 q 439 578 504 599 q 439 611 439 594 q 410 732 435 678 l 626 732 l 626 775 l 1 775 l 1 732 l 292 731 q 317 697 308 714 m 269 181 q 193 158 240 163 q 131 190 154 163 q 108 269 108 217 q 124 319 108 293 q 249 422 154 372 q 346 467 300 450 l 346 339 q 335 269 346 303 q 269 181 313 210 "},"E":{"ha":563,"x_min":10,"x_max":590,"o":"m 347 621 l 347 549 q 103 440 190 507 q 10 297 10 369 q 14 253 10 275 q 67 139 26 183 q 206 74 126 74 q 374 176 306 74 q 443 426 443 278 l 443 493 l 490 507 l 531 521 l 563 535 l 590 550 l 590 640 q 443 578 549 604 l 438 622 q 422 667 429 654 l 397 710 q 361 754 386 728 q 200 843 274 843 q 65 796 121 843 q 10 682 10 749 q 44 598 10 632 q 129 564 78 564 q 156 567 146 564 q 218 594 188 572 q 263 660 263 626 l 257 692 l 243 719 q 221 742 232 735 q 192 758 208 754 q 229 769 204 764 l 269 774 q 299 761 286 771 q 340 678 333 731 q 347 621 347 657 m 293 189 q 165 131 249 136 q 135 138 144 133 q 108 160 121 146 q 86 226 86 182 q 98 296 86 260 q 131 356 110 332 q 211 409 153 381 q 347 460 269 438 l 347 339 q 343 296 347 318 q 293 189 332 233 m 132 626 q 94 619 119 622 l 78 621 l 64 626 l 54 632 l 53 640 q 63 672 53 656 q 113 721 76 697 q 179 753 149 744 q 214 711 214 736 q 172 649 214 672 l 132 626 m 590 732 l 590 775 l 454 775 l 465 732 l 590 732 "},"F":{"ha":319,"x_min":-6,"x_max":336,"o":"m 336 732 l 336 775 l -6 775 l -6 732 l 190 732 l 107 703 l 103 661 l 101 272 l 107 144 q 204 74 149 96 q 193 238 194 168 q 190 425 190 428 l 193 578 l 204 732 l 336 732 "},"G":{"ha":472,"x_min":-8,"x_max":496,"o":"m 279 501 l 179 465 q 76 398 118 443 q 33 300 33 353 q 47 213 33 249 q 160 92 81 129 q 240 76 193 76 q 308 90 276 76 q 363 122 339 103 q 414 236 414 174 q 371 339 414 293 q 254 403 328 385 l 275 411 q 306 422 293 418 l 342 433 l 385 447 l 454 464 l 496 472 l 454 547 l 413 542 l 356 526 l 279 501 m 307 214 q 185 140 276 140 q 147 147 158 143 q 115 174 128 158 q 89 243 89 204 q 121 314 93 283 q 139 333 128 324 q 207 382 172 364 l 251 358 q 288 329 272 347 q 317 258 317 292 q 307 214 317 236 m 496 722 l 496 764 l -8 764 l -8 722 l 496 722 "},"H":{"ha":604,"x_min":4,"x_max":635,"o":"m 108 583 q 67 556 75 565 l 54 515 q 51 471 51 500 q 74 340 51 401 q 183 186 107 246 q 357 126 260 126 q 397 129 381 126 q 510 184 463 140 q 558 292 558 228 q 511 415 558 361 q 385 499 456 475 q 510 556 435 529 q 571 572 542 567 l 635 585 l 593 651 q 301 533 428 621 l 318 481 l 322 467 l 332 457 l 338 458 l 349 458 q 433 417 399 458 q 467 319 467 375 q 415 223 467 264 q 288 182 363 182 q 222 199 251 182 q 133 324 163 231 q 122 417 122 360 q 140 540 122 494 q 192 617 157 585 l 108 583 m 635 722 l 635 764 l 4 764 l 4 722 l 635 722 "},"I":{"ha":590,"x_min":-25,"x_max":618,"o":"m 50 565 q 129 521 79 539 q 101 503 121 515 q 42 458 69 483 q -15 382 4 424 q -25 339 -25 361 q 42 219 -25 267 q 197 172 108 172 l 238 172 l 264 174 l 283 175 l 303 178 l 319 146 q 347 97 329 125 q 399 38 375 63 l 425 15 q 453 0 438 6 l 478 -8 l 506 -12 l 514 -10 l 524 -4 l 532 6 l 540 19 q 556 58 550 35 l 568 108 l 550 99 q 506 89 535 90 l 478 88 q 339 193 400 83 q 407 224 383 210 q 493 306 472 263 q 506 354 506 331 q 471 438 506 403 q 394 472 436 472 q 342 463 368 472 q 276 414 301 449 q 254 339 251 379 l 257 292 l 268 256 q 183 235 210 239 l 143 235 l 106 240 q 74 257 89 246 l 51 281 q 44 311 44 293 q 63 368 44 338 q 204 483 97 424 q 321 536 222 493 q 432 600 393 568 q 478 675 478 638 q 449 763 478 724 q 378 818 419 803 q 311 829 347 829 q 101 775 197 829 l 57 750 l 24 722 l 3 694 q -3 668 -3 682 q 50 565 -3 611 m 281 590 q 235 567 239 568 l 183 549 l 146 564 q 117 586 132 569 q 93 640 93 608 l 99 661 l 114 685 l 140 710 l 176 735 l 215 756 l 256 769 q 281 775 272 775 q 309 777 289 775 q 339 779 329 779 q 371 775 360 779 l 397 765 q 416 749 411 757 q 421 731 421 742 q 404 685 421 707 q 281 590 367 636 m 422 326 q 311 269 388 299 l 306 281 q 303 297 303 286 l 306 317 l 315 339 l 322 350 l 331 361 l 349 382 q 435 425 388 426 q 464 388 464 424 q 422 326 458 350 m 618 571 l 618 619 l 572 618 l 532 614 l 492 607 l 449 597 l 451 553 q 464 521 456 533 q 618 571 536 571 m 618 732 l 618 775 l 528 775 l 550 732 l 618 732 "},"J":{"ha":451,"x_min":-8,"x_max":479,"o":"m 340 660 q 132 564 225 660 q 39 354 39 468 q 54 278 39 315 q 100 213 69 242 q 242 154 160 154 q 386 197 322 154 q 479 307 450 239 l 410 372 q 396 333 403 350 q 268 211 356 244 q 192 199 233 199 q 157 206 168 201 l 128 228 q 101 299 101 258 q 123 397 101 353 q 188 488 144 440 q 231 528 214 517 l 275 557 q 336 579 317 576 l 361 579 q 393 572 385 576 l 438 551 q 428 594 438 572 q 375 651 404 642 q 340 660 358 660 m 479 732 l 479 775 l -8 775 l -8 732 l 479 732 "},"K":{"ha":364,"x_min":-7,"x_max":371,"o":"m 371 279 l 371 403 l 358 406 q 303 347 338 369 q 278 332 286 336 q 235 319 256 319 q 171 349 199 319 q 143 426 143 378 l 143 621 l 371 621 l 371 701 l -7 701 l -7 621 l 65 621 l 65 467 q 79 397 65 428 q 179 276 111 318 q 276 251 218 251 q 371 279 321 251 "},"L":{"ha":326,"x_min":-237,"x_max":336,"o":"m 117 875 q 128 775 128 822 l -6 775 l -6 732 l 185 732 l 108 703 l 103 663 l 101 271 l 108 144 q 204 74 149 94 q 193 238 194 168 q 190 425 190 428 l 193 578 l 204 732 l 336 732 l 336 775 l 169 774 q 107 1010 169 910 q -40 1110 44 1110 l -74 1106 l -107 1092 l -139 1069 l -172 1039 l -200 1003 l -221 969 l -233 933 l -237 899 l -232 861 l -218 829 l -194 803 l -168 789 l -96 788 l -124 797 l -146 815 q -167 864 -167 836 q -156 932 -167 901 q -12 1039 -117 1039 q 40 1019 14 1039 q 117 875 96 975 "},"M":{"ha":479,"x_min":156,"x_max":281,"o":"m 199 204 l 178 185 l 161 160 q 156 142 156 151 l 161 124 l 178 99 l 199 78 q 218 72 210 72 l 235 78 l 257 99 l 274 122 q 281 142 281 132 l 274 161 q 256 185 268 172 l 236 204 q 218 211 228 211 q 199 204 208 211 m 200 483 l 178 464 l 161 439 q 156 421 156 431 l 161 400 l 178 376 l 200 357 q 218 351 210 351 l 235 357 l 256 376 q 281 421 281 400 l 274 440 q 256 464 267 454 l 243 475 l 233 483 l 225 488 l 218 490 l 200 483 "},"N":{"ha":625,"x_min":13,"x_max":653,"o":"m 362 647 q 296 660 332 660 q 136 586 201 658 q 71 410 71 514 q 132 181 71 272 q 338 74 204 74 l 376 79 q 418 99 400 86 q 457 144 457 124 l 454 164 l 449 188 l 439 211 l 428 235 q 296 144 381 144 q 232 156 258 144 q 146 244 172 181 q 133 311 133 274 q 138 367 133 339 q 190 501 150 446 q 324 578 247 578 q 405 536 371 578 q 439 443 439 494 l 438 432 l 436 417 l 439 407 l 451 397 l 465 386 l 490 368 l 526 406 l 564 436 l 599 457 l 626 471 l 644 476 l 653 483 l 653 506 l 651 517 l 651 564 l 619 553 l 581 533 l 532 504 l 476 465 q 421 603 476 546 q 377 640 392 633 q 362 647 362 647 m 651 732 l 651 775 l 13 775 l 13 732 l 651 732 "},"O":{"ha":667,"x_min":4,"x_max":692,"o":"m 174 359 q 146 368 158 368 q 71 344 104 368 q 33 278 33 318 q 92 182 33 224 q 221 146 139 147 l 292 144 q 381 4 331 49 q 501 -46 436 -46 l 544 -40 q 582 -24 565 -35 q 614 29 614 1 l 604 61 l 578 115 q 547 69 569 90 q 499 43 524 47 q 460 38 485 38 q 425 44 436 40 l 390 67 l 356 100 q 326 144 338 124 q 531 203 447 144 q 614 346 614 263 q 606 400 614 374 q 561 475 594 435 q 488 535 532 510 l 414 529 q 342 511 367 519 q 229 450 278 490 l 215 464 l 206 479 q 200 496 200 488 l 201 515 q 211 542 204 531 q 244 569 226 557 q 300 590 263 581 q 361 606 304 592 l 432 622 l 492 647 q 533 675 522 664 q 550 704 550 690 l 460 732 l 692 732 l 692 775 l 4 775 l 4 732 l 446 731 q 408 699 443 710 l 388 692 l 363 686 l 332 678 l 299 672 q 176 631 226 660 q 125 569 125 603 q 136 513 125 540 q 219 414 158 457 q 283 382 240 399 q 501 465 383 465 l 525 461 q 546 449 538 457 l 558 431 q 564 410 564 422 q 485 270 564 328 q 292 213 407 213 q 250 278 275 246 l 211 328 q 181 355 189 350 q 174 359 174 359 m 158 292 q 257 213 214 292 l 189 214 l 136 221 l 100 232 q 89 249 89 239 l 93 265 l 108 279 q 158 292 126 292 "},"P":{"ha":667,"x_min":1,"x_max":669,"o":"m 1 732 l 103 731 q 54 507 54 639 q 132 388 54 458 q 340 242 196 328 l 382 217 l 418 192 l 450 165 l 478 140 q 517 92 499 121 q 529 51 529 71 q 488 -42 529 -4 q 389 -81 446 -81 q 310 -66 349 -81 q 228 -19 272 -51 q 163 42 183 13 q 144 101 143 72 l 146 122 l 151 136 l 138 132 l 128 121 q 122 106 122 114 l 122 88 q 222 -78 143 -12 q 403 -144 300 -144 q 553 -96 493 -144 q 613 15 613 -47 q 596 69 613 38 q 544 135 575 107 l 507 168 l 464 203 l 415 236 l 361 269 q 268 328 275 322 l 197 383 q 169 410 181 397 q 151 432 151 431 q 136 472 136 454 q 207 732 136 597 l 460 731 q 515 578 515 667 q 469 451 515 503 q 346 396 421 396 q 307 403 319 399 l 269 426 l 375 325 q 451 338 418 325 q 569 507 569 397 l 564 569 l 550 629 l 526 683 q 493 732 515 708 l 669 732 l 669 775 l 1 775 l 1 732 "},"Q":{"ha":717,"x_min":-7,"x_max":724,"o":"m 724 621 l 724 701 l -7 701 l -7 621 l 485 621 l 485 488 l -6 488 l 57 393 l 144 393 q 111 311 111 351 q 117 264 111 282 q 161 165 131 206 q 265 49 224 82 l 333 -6 l 383 -8 q 326 58 357 26 l 301 83 q 246 154 271 114 q 224 204 232 176 q 210 250 210 249 q 207 276 207 263 q 211 307 207 290 q 253 372 222 351 q 333 393 283 393 l 485 393 l 485 74 l 579 -14 l 579 621 l 724 621 "},"R":{"ha":569,"x_min":24,"x_max":594,"o":"m 272 596 q 197 588 208 588 l 132 583 l 82 589 q 42 606 60 594 l 47 542 q 64 493 53 515 q 314 535 207 493 q 208 449 250 500 q 161 325 161 389 q 178 256 161 289 q 371 144 231 144 q 507 192 443 144 q 594 313 571 240 l 594 465 q 529 353 564 401 q 417 238 476 276 q 300 199 357 199 q 278 203 286 199 l 260 218 l 247 242 q 244 269 244 251 q 341 462 244 374 q 551 550 438 550 l 538 592 l 532 603 l 525 618 l 517 631 l 511 635 q 272 596 381 610 m 594 732 l 594 775 l 24 775 l 24 732 l 594 732 "},"S":{"ha":889,"x_min":-7,"x_max":922,"o":"m 253 706 l 185 656 q 126 600 160 638 q 64 510 85 553 q 43 425 43 468 q 110 226 43 307 q 267 144 176 144 q 460 230 367 144 q 604 451 554 315 l 604 158 l 611 136 l 633 114 l 668 92 l 714 74 l 703 99 q 700 131 700 110 q 763 348 700 238 q 890 458 825 458 q 914 465 907 461 q 922 489 922 476 l 921 499 l 918 507 l 907 517 l 890 521 q 833 511 864 521 q 694 388 744 482 l 696 456 q 699 479 696 464 l 699 531 l 704 621 l 714 732 l 919 732 l 919 775 l 575 775 l 604 732 l 694 732 l 604 704 l 604 675 q 571 525 604 601 q 471 368 531 433 l 438 332 l 406 300 l 372 274 q 339 251 357 261 q 211 213 269 213 q 172 222 188 215 q 140 256 153 235 q 114 354 114 297 q 147 469 114 418 l 186 529 q 240 586 210 558 q 428 694 338 672 q 490 703 461 703 l 521 699 l 553 689 q 531 724 540 714 l 507 750 q 483 769 492 764 q 463 774 474 774 q 393 765 431 774 q 324 743 356 756 l 253 706 m 182 732 l 261 775 l -7 775 l -7 732 l 182 732 "},"T":{"ha":465,"x_min":7,"x_max":494,"o":"m 322 576 q 188 517 238 550 l 132 479 q 88 439 113 467 q 51 361 51 400 q 69 249 51 300 q 153 122 96 171 q 293 69 215 69 l 343 75 l 382 90 l 385 94 l 386 101 l 383 121 l 376 140 l 354 168 l 338 181 q 326 182 335 182 q 217 140 257 140 q 129 192 164 140 q 99 292 99 236 q 175 406 99 354 l 231 443 q 367 503 282 478 q 494 522 432 522 l 458 597 q 322 576 390 597 m 494 722 l 494 764 l 7 764 l 7 722 l 494 722 "},"U":{"ha":535,"x_min":-50,"x_max":556,"o":"m 299 533 q 243 575 263 578 q 147 561 194 575 q -6 389 -6 514 q 8 294 -6 335 q 56 213 22 253 q 201 140 115 140 q 388 225 311 140 q 464 429 464 310 q 398 686 464 582 q 243 790 332 790 q 144 745 183 790 q 104 639 104 700 l 129 658 q 161 674 142 668 q 243 686 188 686 q 306 674 275 686 q 380 609 351 654 q 408 513 408 564 q 336 297 408 386 q 158 208 264 208 q 89 243 115 208 q 63 319 63 278 q 116 438 63 392 q 243 485 169 485 q 340 457 303 485 l 326 489 l 299 533 m 556 722 l 556 764 l 431 764 l 464 722 l 556 722 m 42 722 l 76 764 l -50 764 l -50 722 l 42 722 "},"V":{"ha":868,"x_min":-7,"x_max":892,"o":"m 196 550 q 156 564 178 564 q 67 526 97 563 q 31 436 31 496 q 42 378 31 406 q 132 296 64 321 q 199 283 163 283 l 218 283 l 238 286 l 256 290 l 275 297 q 387 84 300 167 q 589 1 474 1 q 635 4 615 1 q 753 51 701 14 q 842 179 826 104 l 821 213 q 736 113 799 147 q 575 74 671 74 q 399 142 474 74 q 303 311 319 211 q 393 358 354 329 q 508 511 475 418 q 521 597 521 550 q 506 676 521 640 q 392 786 471 760 q 311 801 357 801 q 171 750 231 801 q 100 626 111 699 q 143 661 119 646 q 168 678 157 672 q 293 711 246 711 l 318 711 q 379 700 350 711 q 460 624 439 676 q 471 569 471 601 q 417 463 471 515 q 283 382 363 410 q 274 426 276 414 q 243 497 267 458 q 196 550 219 535 m 158 333 l 136 332 l 117 335 q 101 347 110 338 l 89 363 l 86 382 q 118 454 92 425 l 132 469 l 147 482 l 163 490 l 178 493 q 226 457 207 490 q 254 368 244 424 l 218 353 l 186 342 l 158 333 m 79 732 l 122 775 l -7 775 l -7 732 l 79 732 m 774 675 q 604 581 688 675 q 521 396 521 486 q 569 252 521 311 q 688 193 617 193 q 717 196 704 193 q 824 264 772 210 q 883 360 860 304 l 883 376 l 885 404 q 888 443 888 428 l 892 493 q 780 308 846 374 q 646 242 714 242 q 617 250 628 244 q 579 301 589 264 l 575 339 q 613 478 575 415 q 721 572 651 542 q 814 592 765 592 l 838 585 l 869 564 q 861 597 868 581 q 801 664 838 644 q 774 675 786 675 m 892 732 l 892 775 l 560 775 l 593 732 l 892 732 "},"W":{"ha":458,"x_min":17,"x_max":521,"o":"m 69 560 q 172 500 115 522 q 207 488 186 494 q 78 393 115 443 l 57 365 l 42 339 l 33 311 l 31 283 q 50 219 31 250 q 186 126 90 151 q 283 115 229 115 q 428 161 364 115 q 521 285 497 211 l 472 382 q 365 229 428 281 q 213 172 296 172 l 169 178 q 133 194 151 183 q 101 249 101 219 q 202 396 101 326 q 394 465 303 465 q 339 521 376 521 l 296 517 l 249 507 l 183 535 q 132 568 163 543 q 88 635 88 601 l 92 667 l 106 697 q 128 722 117 715 q 156 739 143 735 q 229 632 185 665 q 332 592 272 592 q 378 599 353 592 q 440 660 421 615 q 450 703 450 681 q 403 799 450 754 q 297 843 356 843 q 98 785 179 843 q 17 649 17 726 q 69 560 17 604 m 328 665 l 283 660 l 254 665 q 185 753 206 689 q 339 788 257 788 l 364 783 l 385 774 l 397 758 q 403 739 403 749 q 393 708 403 724 q 328 665 367 669 "},"X":{"ha":799,"x_min":4,"x_max":803,"o":"m 189 507 q 236 488 210 496 q 157 446 189 467 q 65 338 89 399 q 53 269 53 306 q 161 69 53 136 q 472 1 269 1 q 557 74 533 1 q 403 43 521 43 q 344 46 368 43 q 143 139 208 61 q 124 199 124 167 q 150 304 124 257 q 233 392 176 351 q 354 453 289 433 q 500 472 440 478 l 532 469 l 560 461 q 585 436 576 454 l 578 424 q 558 411 571 417 q 521 401 544 406 l 474 393 q 422 378 444 388 q 375 350 393 364 q 332 278 332 315 q 394 183 332 222 q 542 144 456 144 q 692 185 633 144 q 751 283 751 225 l 746 297 l 733 311 l 714 321 l 704 322 l 697 325 q 685 321 693 325 l 683 311 q 621 222 683 254 q 589 206 603 210 q 472 186 535 186 l 446 189 l 422 197 l 407 211 l 403 226 q 436 289 403 264 q 518 325 469 314 l 563 335 l 597 351 q 626 388 626 365 q 613 439 626 414 q 521 511 582 493 q 446 521 481 522 l 381 519 l 332 515 l 296 510 l 271 501 l 251 507 l 236 518 l 225 532 q 222 549 222 538 q 290 588 222 575 l 381 604 l 449 619 l 503 639 l 538 660 q 550 683 550 672 l 486 732 l 803 732 l 803 775 l 4 775 l 4 732 l 472 731 q 449 704 472 710 l 399 692 l 304 675 l 232 657 l 174 636 q 136 614 147 622 q 124 592 124 601 q 132 560 124 578 q 154 533 140 543 l 189 507 "},"Y":{"ha":458,"x_min":-26,"x_max":476,"o":"m 133 474 q -4 436 83 454 q -26 410 -26 433 q 44 220 -26 296 q 218 144 114 144 q 303 157 263 144 q 410 222 361 175 q 476 326 458 269 l 428 450 q 396 351 414 388 q 196 207 322 207 q 142 217 165 207 q 97 254 119 228 q 57 368 57 300 q 67 374 61 372 l 99 382 q 211 415 189 406 q 304 476 261 438 q 386 635 386 547 q 375 704 386 671 q 321 783 358 750 q 238 815 283 815 q 147 801 192 815 q 38 735 76 778 q 0 635 0 693 q 8 593 3 608 q 58 528 21 556 l 99 507 q 107 504 100 506 l 119 501 l 132 500 l 144 503 l 146 510 l 144 515 l 142 521 q 99 626 99 571 q 149 722 99 681 q 260 758 193 758 q 294 751 282 756 q 336 706 325 739 q 343 675 343 693 q 318 600 343 636 q 133 474 263 524 m 476 732 l 476 775 l 401 775 l 422 732 l 476 732 "},"Z":{"ha":507,"x_min":-137,"x_max":531,"o":"m 56 444 q -11 488 15 490 q -62 478 -39 488 q -137 382 -137 446 q -96 263 -137 313 q 3 213 -54 213 l 47 218 l 121 235 l 157 156 q 203 94 168 131 q 303 43 251 43 q 392 77 356 43 q 428 164 428 111 q 426 201 428 189 q 401 269 421 244 l 396 274 l 388 275 l 379 269 l 381 263 q 383 254 382 261 l 385 244 l 388 235 q 378 200 385 215 q 268 144 343 144 q 235 151 246 147 l 203 174 l 175 207 l 156 249 q 344 363 274 281 q 414 549 414 446 q 354 742 414 663 q 211 821 294 821 q 164 818 183 821 q 46 776 96 808 q -18 675 -18 735 q 23 563 -18 610 q 128 515 64 515 q 168 527 149 518 q 190 538 188 536 q 231 574 215 553 q 254 635 254 604 q 204 746 254 704 l 246 753 q 326 711 294 753 q 358 619 358 669 q 290 424 358 507 q 121 325 221 342 l 92 390 q 56 444 81 417 m 68 351 l 85 311 l 40 301 l 0 299 l -33 300 l -58 307 l -75 317 q -81 332 -81 324 q -72 364 -81 349 q 8 410 -47 410 l 18 407 l 29 403 l 49 383 l 68 351 m 93 579 l 71 578 l 54 581 l 40 589 l 32 603 l 31 619 q 39 657 29 636 q 156 739 68 715 l 172 728 q 186 714 183 721 l 194 694 q 197 675 197 688 l 194 658 l 188 643 l 174 626 l 156 610 l 135 593 l 114 585 q 93 579 106 581 m 531 732 l 531 775 l 428 775 l 456 732 l 531 732 "},"[":{"ha":0,"x_min":-722,"x_max":-174,"o":"m -486 29 l -512 24 l -594 1 q -662 -29 -628 -8 q -722 -108 -722 -67 q -647 -228 -722 -178 q -469 -278 -571 -278 q -419 -275 -442 -278 q -286 -243 -333 -264 q -174 -150 -204 -207 l -183 -129 l -215 -89 q -260 -139 -235 -121 q -418 -200 -324 -185 q -524 -207 -485 -210 l -585 -203 q -637 -189 -608 -201 q -679 -150 -679 -171 l -675 -137 l -667 -125 l -650 -111 l -628 -99 q -539 -65 -579 -71 l -501 -58 q -425 -29 -461 -51 q -367 53 -367 7 l -368 63 l -372 75 l -447 74 l -451 56 l -465 40 q -486 29 -472 35 "},"\\":{"ha":806,"x_min":-460,"x_max":-1,"o":"m -314 75 l -349 75 l -460 -12 l -397 -74 l -314 -12 l -72 -207 q -31 -228 -53 -224 l -19 -225 l -10 -219 l -3 -210 l -1 -200 l -3 -190 l -314 75 "},"]":{"ha":0,"x_min":-639,"x_max":-142,"o":"m -565 1103 q -599 1082 -590 1096 l -614 1058 q -628 1035 -626 1039 l -636 1010 q -639 982 -639 1001 l -633 968 q -618 964 -626 964 l -600 969 l -585 985 l -565 1003 l -544 1015 l -522 1024 q -500 1026 -515 1026 q -171 764 -433 1026 l -142 790 l -218 868 l -308 964 l -374 1031 l -418 1072 q -500 1110 -458 1110 q -553 1106 -540 1110 q -565 1103 -565 1103 "},"^":{"ha":688,"x_min":71,"x_max":638,"o":"m 151 458 q 204 444 172 447 q 153 418 175 435 q 85 297 85 367 q 167 138 85 203 q 363 74 249 74 q 507 110 440 74 q 638 214 583 151 l 594 283 q 535 226 569 253 q 388 158 467 175 q 308 150 336 147 l 243 156 q 189 176 214 164 q 139 242 139 200 q 193 328 139 285 q 476 460 290 407 l 419 529 q 229 472 303 472 l 193 478 l 161 493 q 133 542 133 518 l 139 569 q 160 599 146 582 q 171 611 163 603 l 193 626 q 238 654 211 642 l 293 681 q 336 697 318 693 q 393 707 376 706 l 447 711 l 476 703 q 390 774 431 776 l 338 769 l 285 758 l 231 740 l 179 717 l 133 689 l 99 660 l 78 632 q 71 606 71 619 q 81 542 71 581 q 108 490 94 510 q 140 463 129 468 q 151 458 151 458 "},"_":{"ha":353,"x_min":51,"x_max":301,"o":"m 243 79 q 301 340 301 197 q 242 606 301 483 q 68 801 178 738 l 56 800 l 51 796 l 56 783 l 68 771 q 193 574 156 683 q 231 333 231 465 q 193 99 231 196 q 68 -89 149 -17 l 56 -103 l 51 -115 l 57 -121 l 68 -117 q 243 79 179 -51 "},"`":{"ha":576,"x_min":-3,"x_max":604,"o":"m 92 368 q 119 450 106 424 l 60 419 q 29 396 36 404 q 96 217 29 290 q 253 144 163 144 q 426 215 354 144 q 499 386 499 286 l 499 400 l 497 410 q 604 438 528 438 l 604 479 l 572 500 q 547 507 561 507 l 515 501 l 490 488 q 413 608 458 575 q 365 642 394 629 q 310 654 336 656 l 265 653 l 231 649 l 203 643 l 182 635 q 175 626 178 633 l 163 574 l 154 549 l 154 542 l 158 536 l 164 533 l 168 535 q 243 568 193 550 q 310 578 271 578 q 418 538 369 578 q 463 444 463 499 q 381 272 463 344 q 182 199 300 199 q 147 208 163 201 q 117 243 131 221 q 92 346 92 283 l 92 368 m 604 732 l 604 775 l -3 775 l -3 732 l 604 732 "},"a":{"ha":778,"x_min":3,"x_max":801,"o":"m 467 753 q 185 636 307 753 q 89 512 122 576 q 56 382 56 447 q 118 203 56 281 q 265 131 175 131 q 314 135 289 131 q 444 189 386 147 q 558 340 528 247 l 558 144 q 664 74 594 101 q 657 206 657 121 l 656 425 l 667 693 l 669 732 l 801 732 l 801 775 l 544 775 l 593 732 l 656 732 l 571 704 l 565 606 q 550 515 557 544 q 529 440 540 468 q 461 325 503 371 q 417 369 438 346 l 375 433 q 351 476 358 463 q 315 558 331 517 l 299 606 q 494 682 386 682 l 522 679 l 544 675 l 524 706 l 503 731 l 482 747 l 467 753 m 426 292 q 229 186 326 192 q 186 198 204 189 q 154 226 168 207 q 124 325 124 267 q 251 578 140 483 q 290 483 269 526 q 426 292 347 358 m 222 732 l 299 775 l 3 775 l 3 732 l 222 732 "},"b":{"ha":722,"x_min":-7,"x_max":725,"o":"m 457 640 q 400 689 428 692 q 142 613 247 689 q 38 436 38 538 q 114 269 38 340 q 301 199 190 199 l 321 199 l 340 201 q 357 204 346 204 l 372 207 q 472 57 410 113 q 610 1 535 1 q 643 60 633 33 q 656 121 656 93 l 654 131 l 653 144 q 568 93 610 93 q 519 100 547 93 q 414 213 450 126 q 503 239 472 225 q 576 288 540 256 q 639 410 639 342 q 610 503 639 468 q 539 542 576 542 q 388 488 467 542 q 315 388 315 439 q 324 331 315 358 q 351 278 338 300 q 338 274 346 275 q 317 272 329 272 q 296 269 310 269 l 274 269 q 203 279 236 269 q 92 388 92 311 q 183 553 92 486 q 400 619 275 619 q 471 592 442 615 l 501 606 l 519 615 l 544 632 q 554 650 554 642 l 554 732 l 725 732 l 725 775 l -7 775 l -7 732 l 539 732 l 457 704 l 457 640 m 539 479 q 590 436 590 479 q 529 347 590 390 q 386 283 464 301 l 385 290 l 385 300 q 397 358 385 324 q 426 414 408 392 q 539 479 481 479 "},"c":{"ha":826,"x_min":-21,"x_max":836,"o":"m 96 390 l 6 333 l -11 311 q -21 278 -21 299 q 38 128 -21 188 q 185 69 97 69 q 392 132 307 69 q 476 278 476 194 q 424 403 476 350 q 297 479 372 456 q 365 519 339 499 q 451 629 429 569 q 463 693 463 660 q 433 772 463 736 q 360 821 403 808 q 297 832 333 832 q 87 767 181 832 q -7 625 -7 703 q 0 608 -4 614 l 26 592 l 58 576 l 115 556 q 94 582 100 571 l 90 611 q 111 675 90 643 q 246 781 154 746 q 324 796 285 796 l 354 790 q 400 757 393 779 q 407 735 407 749 q 357 618 407 672 q 228 528 303 560 l 210 517 l 194 506 l 186 494 l 185 485 q 207 464 193 471 q 247 456 217 458 q 293 447 278 453 q 368 371 351 422 q 379 319 379 349 q 326 171 379 233 q 185 104 269 104 q 136 114 161 104 q 61 236 61 151 q 96 390 61 356 m 836 722 l 836 764 l 547 764 l 547 722 l 685 722 l 608 694 l 600 528 q 519 509 558 528 q 440 458 481 490 l 469 361 q 600 499 511 472 l 601 274 l 608 140 q 704 69 646 96 q 693 232 693 174 q 692 325 693 257 q 690 417 690 383 l 693 568 l 704 722 l 836 722 "},"d":{"ha":833,"x_min":4,"x_max":857,"o":"m 319 697 q 346 604 340 654 q 349 549 349 581 q 224 496 264 515 q 126 439 169 469 q 42 325 42 376 q 56 237 42 272 q 103 165 71 201 q 244 101 161 101 q 384 167 326 101 q 442 326 442 233 l 442 493 q 542 538 508 519 q 622 592 590 563 l 618 525 q 615 494 615 507 l 615 425 l 617 356 l 622 246 l 622 232 l 624 217 l 624 172 l 622 165 l 622 158 q 673 102 651 122 q 719 74 694 82 q 714 126 714 93 l 717 578 l 728 732 l 857 732 l 857 775 l 4 775 l 4 732 l 294 731 q 319 697 311 714 m 554 628 q 501 601 521 610 l 442 578 q 442 611 442 594 q 413 732 438 678 l 714 732 l 629 704 l 629 675 q 554 628 606 656 m 272 181 q 196 158 243 163 q 134 190 157 163 q 111 269 111 217 q 126 319 111 293 q 251 422 157 372 q 349 467 303 450 l 349 339 q 338 269 349 303 q 272 181 315 210 "},"e":{"ha":771,"x_min":10,"x_max":824,"o":"m 347 621 l 347 549 q 103 440 190 507 q 10 297 10 369 q 14 253 10 275 q 67 139 26 183 q 206 74 126 74 q 374 176 306 74 q 443 426 443 278 l 443 493 l 467 499 l 489 507 l 507 513 l 525 519 l 556 533 l 585 550 l 585 640 l 558 621 l 531 606 l 494 592 l 443 578 l 438 622 q 422 667 429 654 l 397 710 q 361 754 386 728 q 200 843 274 843 q 65 796 121 843 q 10 682 10 749 q 44 598 10 632 q 129 564 78 564 q 156 567 146 564 q 218 594 188 572 q 263 660 263 626 l 257 692 l 243 719 q 221 742 232 735 q 192 758 208 754 q 229 769 204 764 l 269 774 q 299 761 286 771 q 340 678 333 731 q 347 621 347 657 m 293 189 q 165 131 249 136 q 135 138 144 133 q 108 160 121 146 q 86 226 86 182 q 98 296 86 260 q 131 356 110 332 q 211 409 153 381 q 347 460 269 438 l 347 339 q 343 296 347 318 q 293 189 332 233 m 132 626 q 94 619 119 622 l 78 621 l 64 626 l 54 632 l 53 640 q 63 672 53 656 q 113 721 76 697 q 179 753 149 744 q 214 711 214 736 q 172 649 214 672 l 132 626 m 824 732 l 824 775 l 454 775 l 465 732 l 678 732 l 594 703 l 590 661 l 589 272 l 594 144 q 692 74 636 96 q 681 238 682 168 q 678 425 678 428 l 681 578 l 692 732 l 824 732 "},"f":{"ha":319,"x_min":-6,"x_max":336,"o":"m 336 732 l 336 775 l -6 775 l -6 732 l 190 732 l 107 703 l 103 661 l 101 272 l 107 144 q 204 74 149 96 q 193 238 194 168 q 190 425 190 428 l 193 578 l 204 732 l 336 732 "},"g":{"ha":743,"x_min":0,"x_max":747,"o":"m 368 618 l 188 556 q 82 486 128 535 q 42 389 42 443 q 58 304 42 343 q 169 183 93 219 q 250 168 203 168 q 374 214 318 168 q 424 325 424 264 q 381 429 424 383 q 264 493 338 475 l 288 503 l 321 515 l 356 528 l 383 539 l 403 544 l 429 551 l 454 558 l 471 561 l 489 556 l 506 542 l 508 319 l 519 146 q 617 69 567 86 q 606 232 606 174 q 604 325 606 257 q 603 417 603 383 l 606 568 l 617 722 l 747 722 l 747 764 l 0 764 l 0 722 l 594 722 l 513 693 q 510 664 510 682 l 507 639 l 506 614 l 506 585 l 464 639 q 368 618 428 639 m 287 264 q 194 229 249 229 q 157 236 168 232 q 99 333 99 269 q 215 471 99 410 l 261 449 q 297 419 281 439 q 325 347 325 385 q 306 281 325 299 q 287 264 287 264 "},"h":{"ha":847,"x_min":-1,"x_max":857,"o":"m 72 564 l 60 556 l 49 515 q 46 471 46 500 q 68 340 46 401 q 178 186 101 246 q 351 126 254 126 q 392 129 375 126 q 505 184 457 140 q 553 292 553 228 q 506 415 553 361 q 379 499 450 475 q 504 556 429 529 q 565 572 536 567 l 629 585 l 621 499 l 622 265 l 629 140 q 725 69 667 96 q 714 232 714 174 q 713 325 714 257 q 711 417 711 383 l 714 568 l 725 722 l 857 722 l 857 764 l -1 764 l -1 722 l 711 722 l 629 688 l 629 599 l 588 651 q 296 533 422 621 l 313 481 l 317 467 l 326 457 l 332 458 l 343 458 q 427 417 393 458 q 461 319 461 375 q 447 265 461 290 q 296 182 403 182 q 233 200 263 182 q 147 326 174 235 q 136 417 136 365 q 153 536 136 490 q 206 617 171 588 l 150 596 l 90 575 l 72 564 "},"i":{"ha":528,"x_min":1,"x_max":547,"o":"m 368 261 q 303 244 343 247 q 276 242 286 243 q 187 300 224 240 q 151 436 150 360 l 153 490 l 157 538 l 164 581 l 178 621 l 429 318 q 403 286 419 297 l 368 261 m 1 732 l 108 731 q 67 507 67 681 q 144 278 67 383 q 318 172 222 172 q 388 182 349 172 q 547 333 500 222 l 486 425 l 481 413 l 465 382 l 457 369 l 200 669 l 214 704 l 151 732 l 547 732 l 547 775 l 1 775 l 1 732 "},"j":{"ha":799,"x_min":8,"x_max":806,"o":"m 472 739 q 189 626 318 739 q 60 382 60 514 q 122 203 60 281 q 268 131 179 131 q 444 183 361 131 q 564 319 521 231 l 564 144 q 668 74 597 101 l 663 126 l 660 292 l 660 425 l 671 693 l 674 732 l 806 732 l 806 775 l 549 775 l 597 732 l 660 732 l 578 704 l 569 606 q 556 517 567 564 q 458 307 526 392 q 240 186 363 186 q 197 197 218 186 q 161 222 176 207 q 129 311 129 261 q 136 368 129 336 l 158 426 l 174 456 l 194 485 l 218 513 l 244 542 q 325 611 290 593 q 393 643 343 625 q 478 660 439 661 l 522 658 l 549 654 l 525 689 l 506 717 q 488 733 494 729 l 472 739 m 213 732 l 289 775 l 8 775 l 8 732 l 213 732 "},"k":{"ha":729,"x_min":-3,"x_max":735,"o":"m -3 732 l 118 731 q 61 507 61 638 q 128 277 61 368 q 285 186 196 186 q 408 221 353 186 q 494 313 460 254 l 494 144 q 600 74 531 100 l 596 133 l 594 517 q 596 565 594 535 q 597 615 597 603 l 599 696 l 600 732 l 735 732 l 735 775 l -3 775 l -3 732 m 406 333 q 257 256 344 261 q 215 265 232 258 q 179 297 194 278 l 167 314 q 146 396 144 358 l 150 494 l 165 581 l 189 650 l 222 704 l 146 732 l 586 732 l 494 704 l 494 535 q 436 368 467 404 q 406 333 406 333 "},"l":{"ha":306,"x_min":-15,"x_max":760,"o":"m 151 775 l -15 775 l -15 732 l 174 732 l 97 703 q 90 614 90 663 l 90 279 l 97 144 q 194 74 147 89 q 182 235 183 183 q 179 425 179 424 l 182 581 l 194 732 l 325 732 l 325 775 l 208 774 l 178 783 q 132 858 132 810 q 150 919 132 890 q 200 976 171 956 q 335 1039 256 1039 q 457 1022 393 1039 q 572 972 521 1004 q 732 789 681 903 l 760 788 q 590 1021 699 939 q 335 1110 472 1110 q 150 1032 246 1110 q 54 886 54 954 l 60 850 q 81 818 74 826 q 151 775 108 785 "},"m":{"ha":569,"x_min":15,"x_max":563,"o":"m 154 732 l 563 732 l 563 775 l 15 775 l 43 732 l 154 732 m 136 421 m 140 326 l 154 74 q 147 90 149 81 l 143 111 q 140 135 140 119 l 140 164 l 144 211 l 158 263 l 181 313 l 211 361 l 246 403 l 282 433 q 316 453 297 447 q 353 458 335 458 l 379 453 q 421 382 421 436 q 403 303 421 343 q 353 222 382 258 q 211 144 288 144 q 282 88 239 89 q 347 106 306 86 q 415 163 381 125 q 485 311 485 238 q 445 461 485 401 q 353 521 406 521 q 214 440 278 521 q 140 326 167 381 "},"n":{"ha":882,"x_min":11,"x_max":875,"o":"m 356 638 q 290 651 326 651 q 134 576 199 650 q 69 403 69 503 q 142 161 69 253 q 333 69 214 69 l 371 75 q 408 93 394 82 q 440 115 429 103 q 450 140 450 128 q 449 167 450 157 q 422 229 440 201 q 290 140 368 140 q 231 153 258 140 q 143 239 169 178 q 131 306 131 268 q 185 493 131 417 q 318 569 240 569 q 399 528 365 569 q 433 436 433 486 l 431 410 l 444 394 l 485 361 q 638 471 556 444 l 639 404 q 642 381 639 396 l 644 140 q 688 97 664 115 q 742 69 725 76 q 735 200 735 117 l 733 417 l 736 568 l 747 722 l 875 722 l 875 764 l 11 764 l 11 722 l 733 722 l 651 693 q 646 663 646 672 q 646 636 646 636 l 644 556 l 613 544 l 574 525 l 525 496 l 471 457 q 415 594 471 538 q 371 632 386 625 q 356 638 356 638 "},"o":{"ha":764,"x_min":4,"x_max":763,"o":"m 126 504 l 108 507 l 85 501 q 51 468 63 496 l 47 444 q 114 225 47 306 q 299 144 181 144 q 429 183 371 144 q 528 293 499 229 l 528 144 l 553 121 l 579 101 l 604 85 l 628 74 l 622 126 l 619 292 l 619 425 l 622 578 l 633 732 l 763 732 l 763 775 l 4 775 l 4 732 l 228 731 q 324 697 281 731 q 367 611 367 663 q 317 528 367 561 q 194 493 258 489 l 175 494 l 151 500 l 126 504 m 431 292 q 263 235 365 239 q 197 244 235 233 q 124 290 154 257 q 89 368 89 326 l 92 386 l 100 401 l 114 411 q 129 417 122 417 l 203 410 l 228 410 q 357 462 304 410 q 410 592 410 514 q 381 732 410 697 l 619 732 l 536 703 l 532 597 q 531 574 532 589 q 529 553 529 558 q 529 514 529 514 l 528 440 q 431 292 503 350 "},"p":{"ha":681,"x_min":0,"x_max":710,"o":"m 115 410 q 149 535 115 510 l 107 532 l 74 526 l 51 518 q 44 507 49 515 q 67 331 44 410 q 165 150 99 217 q 353 74 242 74 q 407 78 379 74 q 542 132 489 90 q 618 269 618 192 q 563 396 618 343 q 429 465 507 449 q 499 496 474 481 q 582 563 560 533 q 586 569 583 564 q 604 619 604 599 l 599 651 l 585 683 l 561 710 q 533 732 549 724 l 710 732 l 710 775 l 0 775 l 0 732 l 254 731 l 244 718 l 239 703 l 240 690 l 246 675 l 256 656 l 268 635 l 272 650 l 286 668 l 294 676 l 307 686 l 319 694 l 335 703 q 367 717 354 714 l 400 729 q 433 736 414 735 l 464 739 q 490 732 483 736 l 519 715 q 549 668 549 692 q 485 587 549 629 q 331 521 422 544 l 325 518 l 319 518 l 313 515 l 307 514 l 297 511 l 296 507 l 303 483 l 325 444 q 417 432 367 444 q 496 386 463 418 q 533 306 533 350 q 479 164 533 226 q 353 108 432 108 q 183 197 256 108 q 115 410 115 279 "},"q":{"ha":778,"x_min":-1,"x_max":785,"o":"m 351 646 q 293 660 326 661 q 138 621 197 654 q 26 515 60 576 q 34 458 26 483 q 54 417 42 432 q 108 492 81 461 q 321 592 201 592 q 358 582 340 592 q 411 488 411 549 q 373 347 411 410 q 264 243 335 283 l 117 158 l 135 124 l 158 81 l 165 76 q 174 74 167 75 q 544 283 283 165 l 544 243 q 547 206 547 219 l 550 144 q 656 74 586 100 q 644 201 644 135 l 643 303 q 642 425 642 378 l 642 496 q 644 524 642 504 l 649 732 l 785 732 l 785 775 l -1 775 l -1 732 l 635 732 l 558 703 q 547 528 549 603 q 544 307 544 286 l 508 360 l 485 353 l 451 335 q 421 315 432 322 l 389 297 q 431 367 418 322 q 446 479 446 406 q 443 515 446 500 q 351 646 426 608 "},"r":{"ha":806,"x_min":-1,"x_max":806,"o":"m 249 596 q 183 588 208 590 q 107 583 139 585 l 57 589 q 17 606 35 594 l 22 542 q 39 493 28 515 q 289 543 157 493 l 289 535 q 183 449 225 500 q 136 325 136 389 q 153 256 136 289 q 346 144 206 144 q 383 147 368 144 q 482 192 436 157 q 569 313 546 239 l 578 144 q 674 74 618 94 q 663 238 664 168 q 660 425 660 428 l 663 578 l 674 732 l 806 732 l 806 775 l -1 775 l -1 732 l 654 732 l 578 703 l 574 660 l 571 621 l 569 578 l 569 521 q 463 289 539 372 q 275 199 381 199 l 253 204 l 236 219 l 224 243 q 221 269 221 253 q 246 371 221 321 q 363 499 282 447 q 526 550 443 550 l 513 592 l 506 608 l 499 622 l 492 632 l 486 635 q 249 596 351 608 "},"s":{"ha":1097,"x_min":-10,"x_max":1118,"o":"m 250 707 q 122 600 179 664 q 60 510 81 553 q 39 425 39 468 q 106 226 39 307 q 263 144 172 144 q 443 226 353 144 q 599 451 529 306 l 599 158 l 606 136 l 628 114 l 663 92 l 710 74 q 703 90 704 81 l 699 111 q 696 135 696 119 l 696 164 l 700 211 l 714 263 l 736 313 l 767 361 l 801 403 l 838 433 q 872 453 853 447 q 908 458 890 458 l 935 453 q 976 382 976 436 q 958 303 976 343 q 908 222 938 258 q 767 144 843 144 q 838 88 794 89 q 903 106 861 86 q 971 163 936 125 q 1040 311 1040 238 q 1001 461 1040 401 q 908 521 961 521 q 769 440 833 521 q 696 326 722 381 l 690 325 l 692 421 q 694 515 693 481 l 700 617 l 710 732 l 1118 732 l 1118 775 l 571 775 l 599 732 l 690 732 l 599 704 l 599 675 q 468 368 599 526 q 403 299 435 328 q 276 224 338 242 q 208 213 240 213 q 171 222 186 215 q 139 254 153 235 q 110 354 110 294 q 227 594 110 485 q 486 703 344 703 l 517 699 l 551 689 l 539 707 l 528 724 l 515 738 l 503 750 q 480 769 490 764 q 458 774 469 774 q 275 721 376 774 q 250 707 260 713 m 181 732 l 257 775 l -10 775 l -10 732 l 181 732 "},"t":{"ha":750,"x_min":0,"x_max":757,"o":"m 456 665 q 183 563 318 665 q 83 461 118 513 q 49 361 49 410 q 65 249 49 296 q 149 122 93 171 q 289 69 211 69 l 339 75 l 379 90 l 382 94 l 383 101 l 381 121 l 374 140 l 351 168 l 335 181 q 324 182 332 182 q 214 140 254 140 q 167 152 192 140 q 129 183 143 164 q 96 292 96 229 q 104 343 96 317 q 169 443 121 394 q 293 540 229 503 q 492 599 394 599 l 519 589 l 515 546 q 513 510 514 536 l 511 318 l 514 190 l 519 146 q 622 69 560 99 q 611 232 611 174 q 608 325 611 251 q 608 417 607 382 l 614 526 l 629 722 l 757 722 l 757 764 l 0 764 l 0 722 l 615 722 l 525 686 l 524 675 l 522 657 l 519 633 l 519 613 l 456 665 "},"u":{"ha":854,"x_min":13,"x_max":860,"o":"m 363 533 q 307 575 326 578 q 211 561 258 575 q 57 389 57 514 q 118 214 57 288 q 264 140 179 140 q 365 161 318 140 q 508 317 465 204 q 528 429 528 368 q 461 681 528 579 q 307 782 394 782 q 208 740 247 782 q 168 639 168 697 l 192 658 q 225 675 204 668 q 307 686 261 686 q 369 674 339 686 q 444 609 415 654 q 472 513 472 564 q 400 297 472 386 q 222 208 328 208 q 153 243 179 208 q 126 319 126 278 q 180 438 126 392 q 307 485 233 485 q 404 457 367 485 l 390 489 l 363 533 m 569 722 l 707 722 l 632 693 l 628 618 q 626 599 628 611 q 625 582 625 588 l 625 369 l 628 189 l 632 140 q 675 97 651 115 q 729 69 713 76 q 718 232 718 174 q 717 325 718 257 q 715 417 715 383 l 718 568 l 729 722 l 860 722 l 860 764 l 569 764 l 569 722 m 104 722 l 140 764 l 13 764 l 13 722 l 104 722 "},"v":{"ha":1049,"x_min":-7,"x_max":1104,"o":"m 158 333 l 136 332 l 117 335 q 101 347 110 338 l 89 363 l 86 382 q 118 454 92 425 l 132 469 l 147 482 l 163 490 l 178 493 q 226 457 207 490 q 254 368 244 424 l 218 353 l 186 342 l 158 333 m 79 732 l 122 775 l -7 775 l -7 732 l 79 732 m 774 675 q 604 581 688 675 q 521 396 521 486 q 569 252 521 311 q 688 193 617 193 q 861 347 786 193 l 861 364 l 863 392 q 865 431 865 415 l 869 481 q 769 302 825 363 q 646 242 713 242 q 617 250 628 244 q 579 301 589 264 l 575 339 q 613 478 575 415 q 721 572 651 542 q 814 592 765 592 l 838 585 l 864 568 q 835 636 858 608 q 774 675 800 675 m 296 218 l 313 182 l 418 58 q 533 7 482 19 q 557 1 551 3 l 589 1 q 635 4 615 1 q 753 51 701 14 q 842 179 826 104 l 821 213 q 790 157 810 181 q 692 92 757 114 q 575 74 633 71 l 542 75 l 507 82 l 475 92 l 381 154 q 303 311 321 215 q 393 358 354 329 q 508 511 475 418 q 521 597 521 550 q 506 676 521 640 q 392 786 471 760 q 311 801 357 801 q 171 750 231 801 q 100 626 111 699 q 143 661 119 646 q 168 678 157 672 q 293 711 246 711 l 318 711 q 379 700 350 711 q 460 624 439 676 q 471 569 471 601 q 417 463 471 515 q 283 382 363 410 q 274 426 276 414 q 231 516 264 468 q 156 564 197 564 q 67 526 99 564 q 31 436 31 496 q 42 378 31 406 q 132 296 64 321 q 199 283 163 283 l 218 283 l 238 286 l 256 290 l 275 297 l 283 257 l 296 218 m 560 775 l 593 732 l 958 732 l 875 703 l 871 661 l 869 272 l 875 144 q 972 74 917 96 q 961 238 963 168 q 958 425 958 428 l 961 578 l 972 732 l 1104 732 l 1104 775 l 560 775 "},"w":{"ha":806,"x_min":-3,"x_max":792,"o":"m 50 447 q 151 388 94 410 q 188 375 167 382 q 58 281 96 332 l 38 253 l 22 226 l 14 199 l 11 171 q 29 106 11 138 q 165 14 68 42 q 264 3 206 3 q 331 11 301 3 q 465 104 410 35 q 514 158 490 132 q 557 217 553 200 l 564 417 q 503 317 525 350 q 426 215 483 290 q 344 117 361 129 q 193 60 275 60 l 149 65 q 113 83 129 71 q 82 136 82 107 q 180 283 82 213 q 374 353 278 353 l 363 375 l 350 393 l 333 404 l 319 408 l 276 404 l 229 394 l 161 422 l 111 456 q 68 522 68 485 l 72 554 l 86 585 q 108 610 97 603 q 136 626 124 622 q 208 519 160 557 q 311 479 250 479 q 383 503 354 479 q 419 546 408 522 q 431 590 431 569 q 417 642 431 615 q 336 718 386 699 q 278 731 306 731 q 78 672 160 731 q -3 536 -3 614 q 50 447 -3 492 m 308 553 l 264 547 l 233 553 q 182 601 201 571 l 164 640 q 319 675 236 675 l 343 671 l 364 661 l 376 646 q 382 626 382 636 q 372 597 382 611 q 308 553 349 558 m 792 676 l 792 719 l 450 719 l 450 676 l 646 676 l 563 647 l 558 606 l 557 217 l 563 89 q 660 18 604 40 q 649 182 650 113 q 646 369 646 372 l 649 522 l 660 676 l 792 676 "},"x":{"ha":743,"x_min":4,"x_max":746,"o":"m 154 506 q 236 472 174 486 q 103 378 149 429 q 53 269 53 321 q 118 111 53 182 q 268 21 178 49 q 403 1 331 1 q 599 53 510 1 l 604 101 q 403 51 521 51 q 225 99 299 51 q 151 213 151 146 q 178 311 151 265 q 299 419 217 381 q 486 458 381 458 l 528 453 q 563 440 546 450 q 590 396 590 422 q 547 303 590 343 q 438 263 504 263 q 383 271 408 263 q 340 292 357 279 l 328 297 l 315 306 l 313 306 l 321 285 l 338 263 l 357 242 l 381 225 q 472 186 439 183 l 507 189 l 544 197 l 581 213 l 613 231 l 640 253 q 678 303 672 278 l 683 325 q 668 399 683 364 q 553 506 631 479 q 472 521 518 521 q 439 521 460 521 q 290 493 364 518 l 254 500 l 228 511 l 218 517 l 211 524 l 207 529 l 207 535 q 224 561 210 550 q 331 600 251 585 q 365 611 361 610 q 424 619 396 615 l 490 633 l 542 650 l 574 668 q 585 690 585 679 l 514 732 l 746 732 l 746 775 l 4 775 l 4 732 l 486 731 q 446 703 482 717 q 332 675 369 682 l 236 654 l 164 633 q 103 583 103 608 q 113 550 103 567 q 139 518 124 533 q 154 506 144 513 "},"y":{"ha":761,"x_min":-22,"x_max":739,"o":"m 138 453 q 0 415 88 433 q -22 389 -22 413 q 48 199 -22 275 q 222 124 118 124 q 307 136 267 124 q 414 201 365 154 q 481 306 463 249 l 432 429 q 400 331 418 367 q 200 186 326 186 q 147 197 169 186 q 101 233 124 207 q 61 347 61 279 q 71 353 65 351 l 103 361 q 215 394 193 385 q 308 456 265 417 q 390 614 390 526 q 379 683 390 650 q 371 715 378 686 q 358 743 368 733 q 294 783 318 771 q 242 794 271 794 q 151 781 196 794 q 42 715 81 757 q 4 614 4 672 q 13 572 7 588 q 63 507 25 535 l 103 486 q 111 483 104 485 l 124 481 l 136 479 l 149 482 l 150 489 l 149 494 l 146 500 q 103 606 103 550 q 153 701 103 660 q 264 738 197 738 q 299 731 286 735 q 340 685 329 718 q 347 654 347 672 q 322 579 347 615 q 138 453 267 503 m 739 732 l 739 775 l 397 775 l 397 732 l 593 732 l 510 703 l 506 661 l 504 272 l 510 144 q 607 74 551 96 q 596 238 597 168 q 593 425 593 428 l 596 578 l 607 732 l 739 732 "},"z":{"ha":800,"x_min":-57,"x_max":725,"o":"m 85 444 q 36 488 56 490 q -1 478 15 488 q -57 383 -57 446 q -26 266 -57 315 q 46 217 4 217 l 79 222 l 133 239 l 160 161 q 193 100 168 136 q 268 50 229 50 q 336 89 311 50 q 360 168 360 124 q 358 206 360 193 q 340 272 356 247 l 336 276 l 331 278 l 324 272 l 325 265 q 326 257 326 264 l 328 249 l 331 239 q 324 204 328 219 q 242 150 297 150 q 217 157 225 153 l 193 178 l 174 211 l 158 251 q 298 365 246 283 q 350 547 350 446 q 306 738 350 660 q 200 815 261 815 q 165 813 179 815 q 72 765 110 801 q 31 672 31 726 q 39 610 31 639 q 139 514 67 514 q 168 526 154 517 q 185 536 182 535 q 214 571 203 551 q 232 632 232 601 q 194 742 232 700 l 225 749 q 283 710 258 749 q 308 617 308 671 q 258 424 308 506 q 133 328 207 343 l 111 392 q 85 444 103 418 m 94 353 l 107 314 l 74 304 l 44 301 l 19 303 l 1 310 l -11 319 q -15 335 -15 326 q 3 388 -15 364 q 50 411 21 411 l 57 408 l 65 404 l 81 385 l 94 353 m 113 578 l 96 576 l 83 579 l 74 588 l 68 600 l 67 617 q 72 653 65 633 q 158 735 94 711 l 171 724 q 182 710 179 717 l 188 690 q 190 672 190 685 l 188 656 l 182 640 l 172 624 l 158 607 l 143 592 l 128 583 q 113 578 122 578 m 461 732 l 461 775 l 358 775 l 386 732 l 461 732 m 725 732 l 725 775 l 383 775 l 383 732 l 579 732 l 496 703 l 492 661 l 490 272 l 496 144 q 593 74 538 96 q 582 238 583 168 q 579 425 579 428 l 582 578 l 593 732 l 725 732 "},"{":{"ha":0,"x_min":-365,"x_max":-33,"o":"m -92 1103 q -128 1110 -108 1110 q -218 1096 -181 1108 q -321 1032 -279 1076 q -365 921 -365 982 q -337 831 -365 874 q -262 775 -310 789 l -204 774 q -287 906 -287 807 q -232 994 -281 960 l -204 1014 q -179 1029 -196 1024 q -153 1038 -167 1036 l -128 1039 q -33 1011 -74 1042 q -42 1053 -36 1038 q -92 1103 -57 1092 "},"|":{"ha":0,"x_min":-765,"x_max":-207,"o":"m -207 119 l -207 179 l -390 139 q -554 89 -458 124 q -765 -12 -682 42 l -764 -26 l -761 -42 l -754 -58 l -742 -76 q -524 35 -671 -18 q -207 119 -378 88 "},"}":{"ha":0,"x_min":-647,"x_max":-18,"o":"m -582 1106 l -606 1096 q -628 1049 -617 1081 q -642 1010 -637 1029 l -647 978 l -646 969 l -640 969 q -601 994 -618 988 q -557 1004 -578 1004 q -515 997 -529 1001 l -474 976 q -399 901 -429 949 l -362 858 q -279 788 -326 815 q -233 764 -257 772 l -147 763 q -276 832 -228 792 q -369 942 -325 872 l -414 1011 l -458 1064 q -501 1100 -475 1085 q -537 1110 -519 1110 q -582 1106 -565 1110 m -236 1094 q -260 1110 -253 1113 q -353 1085 -317 1110 q -369 1026 -372 1071 l -368 1006 l -364 983 l -357 969 q -279 1026 -312 1026 q -250 1018 -261 1024 q -206 972 -218 1003 l -190 936 q -139 846 -167 881 q -60 764 -103 801 l -18 782 q -46 800 -32 788 l -79 838 l -117 893 l -162 969 l -185 1011 l -208 1053 q -236 1094 -225 1082 "},"~":{"ha":576,"x_min":-3,"x_max":604,"o":"m 92 368 q 119 450 106 424 l 60 419 q 29 396 36 404 q 96 217 29 290 q 253 144 163 144 q 426 215 354 144 q 499 386 499 286 l 499 400 l 497 410 q 604 438 528 438 l 604 479 l 572 500 q 547 507 561 507 l 515 501 l 490 488 q 413 608 458 575 q 365 642 394 629 q 310 654 336 656 l 265 653 l 231 649 l 203 643 l 182 635 q 175 626 178 633 l 163 574 l 154 549 l 154 542 l 158 536 l 164 533 l 168 535 q 243 568 193 550 q 310 578 271 578 q 418 538 369 578 q 463 444 463 499 q 381 272 463 344 q 182 199 300 199 q 147 208 163 201 q 117 243 131 221 q 92 346 92 283 l 92 368 m 604 732 l 604 775 l -3 775 l -3 732 l 604 732 "},"":{"ha":674,"x_min":1,"x_max":660,"o":"m 650 599 l 656 668 q 465 640 597 640 l 426 640 q 203 668 286 640 l 196 668 l 192 664 l 189 657 l 188 649 l 194 621 l 217 578 q 317 550 278 565 q 397 510 363 532 q 468 410 468 463 q 454 367 468 389 q 361 288 424 321 q 288 256 331 271 l 271 288 l 254 318 l 236 344 l 219 367 q 160 410 185 413 q 76 385 113 410 q 35 311 35 357 q 45 244 35 275 q 71 193 56 214 q 114 155 96 165 q 160 144 132 144 q 301 172 236 144 l 338 117 q 379 74 350 96 q 460 38 415 38 q 533 64 500 38 q 565 131 565 90 q 564 167 565 156 q 538 226 558 213 l 539 221 l 542 214 l 542 204 l 544 193 q 538 163 542 172 q 514 136 529 147 q 446 115 485 115 q 383 135 414 115 q 335 186 353 154 q 483 271 419 215 q 538 374 538 319 q 525 429 538 401 q 364 564 481 529 q 650 599 592 564 m 1 732 l 660 732 l 660 775 l 1 775 l 1 732 m 204 232 l 140 226 l 121 229 l 106 239 l 93 253 l 89 269 l 94 294 q 111 314 100 304 l 136 326 q 168 332 151 332 l 188 326 l 211 310 l 233 283 l 258 249 q 204 232 229 235 "},"":{"ha":903,"x_min":-32,"x_max":914,"o":"m 122 335 l 99 332 l 92 335 l 76 346 l 90 367 q 108 382 96 376 l 128 392 l 147 396 q 157 392 150 396 l 161 382 l 156 361 q 143 346 153 353 l 122 335 m 592 676 q 581 682 589 679 q 321 621 431 682 q 218 479 218 563 q 240 395 218 431 q 311 328 261 360 q 539 269 403 269 q 526 226 533 243 q 446 128 500 165 q 258 74 368 74 q 224 80 236 74 q 210 93 211 86 q 221 135 210 114 q 338 199 256 199 l 350 201 q 357 213 353 204 l 354 218 l 350 224 l 340 231 l 329 242 l 317 247 l 306 251 l 293 254 l 281 256 l 254 249 l 226 244 q 196 242 217 242 l 161 242 l 121 247 q 67 293 81 265 l 63 325 q 81 317 68 319 l 111 311 l 146 315 l 176 329 q 204 374 204 347 l 200 392 q 188 407 197 400 l 168 418 q 147 425 160 425 q 125 425 139 425 q 38 396 83 422 q -7 332 -7 369 q 42 247 -7 281 q 161 214 85 215 l 218 213 q 153 144 153 188 q 164 100 153 122 q 200 63 181 78 q 315 29 253 29 q 547 169 474 29 q 581 263 574 219 q 610 160 593 200 q 660 75 626 119 q 790 1 715 1 q 836 29 821 6 l 849 60 q 854 97 854 74 l 851 119 l 847 144 q 749 101 811 101 q 712 113 728 104 q 678 146 696 122 q 615 263 639 192 q 703 286 679 276 q 775 328 742 303 q 833 425 833 372 q 803 494 828 472 q 733 521 772 521 q 664 510 697 521 q 551 368 551 469 l 551 356 l 553 346 q 529 340 543 340 l 490 340 l 456 339 q 418 340 436 338 q 328 368 371 346 q 272 431 272 394 q 279 458 275 449 l 300 489 q 333 518 314 503 q 478 590 404 571 q 581 606 535 606 q 651 592 633 606 l 672 601 l 703 617 l 717 625 l 726 633 q 732 640 729 635 l 733 650 l 733 732 l 914 732 l 914 775 l -32 775 l -32 732 l 719 732 l 638 704 l 638 626 l 622 642 l 607 661 l 592 676 m 801 447 l 804 436 q 782 406 801 418 q 747 389 774 400 q 635 360 690 365 l 594 354 l 597 372 l 608 392 l 625 411 l 647 431 q 701 456 678 447 q 763 465 732 465 l 779 463 l 793 457 q 801 447 796 454 "},"":{"ha":507,"x_min":6,"x_max":532,"o":"m 69 535 q 151 474 92 499 q 251 450 204 451 l 185 407 q 133 363 160 392 q 90 283 90 317 q 106 214 90 247 q 279 101 153 101 q 353 111 307 101 q 424 143 393 124 q 532 257 490 185 l 532 396 q 464 294 497 336 q 311 174 394 211 q 238 158 276 158 l 204 163 l 178 176 q 154 221 154 193 q 221 333 154 272 q 247 358 238 350 q 349 425 300 400 l 404 451 l 350 521 q 251 488 286 488 l 208 492 l 172 506 q 140 549 140 526 q 158 599 140 574 q 364 704 213 678 l 342 732 l 532 732 l 532 775 l 6 775 l 6 732 l 181 731 l 128 699 l 89 663 q 56 578 56 621 q 69 535 56 557 "},"":{"ha":340,"x_min":107,"x_max":221,"o":"m 108 619 l 107 325 q 147 269 113 288 l 168 258 q 190 256 176 256 l 203 258 q 204 271 207 263 l 204 507 l 206 522 q 208 546 208 531 l 208 578 q 211 604 211 594 l 211 619 l 213 642 q 214 672 214 663 l 214 699 l 218 753 q 213 777 221 765 q 190 801 204 789 l 174 814 l 160 828 l 144 838 l 133 843 l 125 839 l 119 829 l 118 776 l 115 718 l 108 619 m 108 172 l 107 160 l 107 101 l 113 74 q 133 57 122 63 l 142 53 l 151 50 l 160 44 l 168 40 l 182 32 l 190 29 l 203 32 q 204 44 207 36 l 204 88 q 169 158 204 144 l 156 164 l 136 174 l 126 176 l 119 178 q 108 172 115 178 "},"":{"ha":375,"x_min":-7,"x_max":424,"o":"m 424 621 l 424 701 l -7 701 l -7 621 l 424 621 m 424 301 l 424 407 q 368 399 382 400 q 272 390 308 390 q 131 415 201 390 q 58 449 97 426 l 58 407 q 90 376 78 386 q 158 332 126 346 q 249 303 215 313 q 304 297 268 297 l 354 297 q 424 301 390 297 "},"":{"ha":743,"x_min":-1,"x_max":753,"o":"m 435 307 l 397 311 q 326 308 357 311 q 161 267 236 300 q 64 158 64 222 q 83 97 64 124 q 225 14 131 35 q 343 1 282 1 q 571 42 465 1 l 618 60 l 654 81 l 678 101 q 686 122 686 114 q 624 207 686 158 q 617 182 621 189 q 560 129 600 151 l 515 104 q 410 65 471 79 q 301 51 340 49 l 231 57 l 172 72 q 119 122 119 94 q 201 218 119 179 q 397 256 279 256 q 504 193 479 256 l 533 211 l 556 231 l 571 250 q 581 271 578 258 l 581 382 l 597 386 l 614 393 l 629 403 l 646 418 l 672 444 q 678 465 681 456 q 671 485 674 481 l 654 508 l 633 528 q 615 535 626 535 q 596 521 601 535 q 489 440 578 471 q 289 410 400 410 l 274 410 l 204 415 q 146 435 171 422 q 97 493 97 457 q 122 544 97 522 q 197 585 146 567 q 440 619 300 619 q 474 597 457 617 q 497 564 483 588 q 581 621 567 590 l 581 732 l 753 732 l 753 775 l -1 775 l -1 732 l 567 732 l 483 704 l 483 635 q 397 689 443 689 q 150 639 251 689 q 49 521 49 589 q 131 397 49 447 q 329 346 221 342 l 406 349 l 483 361 l 483 256 l 468 274 l 456 288 l 444 297 l 435 307 "},"":{"ha":875,"x_min":10,"x_max":872,"o":"m 76 531 l 65 521 l 63 514 l 61 508 l 60 500 l 60 494 q 57 479 57 489 l 57 465 q 85 307 57 379 q 294 101 140 156 q 457 74 374 74 q 656 141 574 74 q 738 297 738 208 q 735 342 738 322 q 692 446 726 400 q 583 507 646 507 q 386 425 471 507 q 346 501 346 456 l 349 514 l 358 526 l 374 538 l 396 550 q 453 572 414 561 q 488 583 471 579 l 528 592 q 637 624 593 600 q 681 676 681 649 l 618 732 l 872 732 l 872 775 l 10 775 l 10 732 l 596 731 q 599 724 599 728 q 579 700 599 711 q 529 679 560 689 q 457 660 479 665 l 382 642 q 326 618 358 636 q 275 556 275 589 q 288 488 275 519 q 328 432 307 450 q 457 382 382 382 q 610 431 526 431 l 642 425 q 669 408 656 419 q 694 354 694 386 q 601 203 694 263 q 372 144 508 144 q 208 229 268 144 q 149 450 149 314 q 150 500 149 485 q 176 583 156 563 l 142 564 l 99 543 l 76 531 m 786 601 q 765 606 776 608 q 743 601 751 606 l 725 589 l 713 569 l 708 549 l 713 528 l 725 510 l 743 497 l 765 493 q 788 497 779 493 l 806 510 l 817 528 l 821 549 l 817 569 q 804 589 814 581 l 786 601 "},"":{"ha":0,"x_min":-339,"x_max":172,"o":"m -74 75 l -129 75 l -339 -117 l -276 -165 l -82 17 l 132 -150 l 172 -122 l -74 75 "},"":{"ha":0,"x_min":-681,"x_max":-51,"o":"m -597 -46 q -561 24 -592 3 q -585 22 -578 24 q -646 -4 -619 15 q -681 -74 -681 -39 q -654 -153 -681 -115 q -474 -262 -600 -231 q -346 -278 -414 -278 q -134 -219 -217 -278 q -51 -81 -51 -160 q -62 -22 -51 -53 q -93 28 -74 8 q -193 74 -131 74 l -222 71 l -251 63 l -281 50 l -311 33 q -374 -46 -374 -10 l -368 -75 q -356 -104 -365 -90 l -333 -129 q -304 -150 -324 -140 q -311 -136 -307 -147 l -318 -117 q -265 -28 -318 -72 l -240 -7 l -215 6 q -164 15 -196 15 l -144 10 l -128 -1 l -117 -22 q -114 -46 -114 -31 q -135 -118 -114 -87 q -257 -208 -174 -175 q -408 -236 -331 -236 q -542 -178 -487 -236 q -597 -46 -597 -121 "},"":{"ha":715,"x_min":11,"x_max":713,"o":"m 219 549 q 174 564 197 565 q 85 526 115 563 q 49 436 49 496 q 95 308 49 361 q 217 256 142 256 l 246 256 q 272 258 256 258 l 294 263 l 315 269 q 415 72 356 154 q 517 1 467 1 q 562 13 538 1 q 603 44 586 24 q 635 144 638 89 l 633 172 l 632 196 l 628 214 l 621 226 l 610 239 l 592 247 l 588 242 l 592 222 l 593 199 q 586 164 590 175 q 563 133 578 147 q 496 108 535 108 q 454 119 472 111 q 413 157 429 135 q 342 283 374 193 q 428 329 392 303 q 538 476 506 386 q 553 564 556 528 l 549 617 l 538 665 l 518 704 q 496 732 511 718 l 713 732 l 713 775 l 468 774 q 418 806 450 796 q 335 815 386 815 q 215 775 267 815 q 146 668 164 735 q 240 714 203 701 q 329 731 293 731 q 452 680 401 731 q 503 564 503 629 q 492 503 503 532 q 394 396 465 440 q 321 360 357 372 q 299 442 313 407 q 219 549 265 524 m 247 338 l 196 332 l 169 338 q 136 379 144 351 l 132 410 q 136 429 132 421 l 150 446 l 168 460 q 188 465 179 465 q 224 456 206 465 q 278 397 265 433 q 293 354 289 382 q 247 338 267 340 m 103 732 l 139 775 l 11 775 l 11 732 l 103 732 "},"":{"ha":628,"x_min":-7,"x_max":636,"o":"m 592 457 l 533 506 l 479 458 l 533 408 l 592 457 m 636 621 l 636 701 l -7 701 l -7 621 l 375 621 l 375 581 l 222 581 q 190 578 200 581 q 142 528 142 564 q 157 485 142 506 l 229 386 q 294 360 249 360 q 354 372 326 365 q 383 383 368 378 q 410 383 399 389 q 428 346 428 375 q 411 315 428 329 q 381 296 404 310 q 313 282 357 282 l 286 282 q 188 333 247 282 q 104 435 121 389 l 74 411 q 104 368 82 394 q 192 268 161 294 q 254 226 222 242 q 368 197 314 197 q 472 242 432 197 q 499 315 499 271 q 497 340 499 333 q 436 424 488 392 q 336 449 396 449 q 286 442 329 449 q 256 440 269 439 q 219 458 222 443 q 218 469 218 465 q 285 500 218 500 l 469 500 l 469 621 l 636 621 m 390 206 l 325 206 l 325 75 q 290 18 315 40 q 215 -19 250 -19 q 181 17 181 -19 q 208 76 181 50 q 268 103 235 103 q 339 76 307 103 l 338 101 q 240 158 307 158 q 211 154 226 158 q 133 43 133 133 q 166 -33 133 -3 q 244 -64 199 -64 q 325 -36 288 -64 l 325 -117 l 390 -176 l 390 35 q 453 88 428 88 l 471 88 q 518 51 518 88 q 489 -1 518 18 q 436 -24 456 -24 l 463 -78 q 500 -61 485 -72 q 554 35 554 -19 q 543 83 554 58 q 453 143 517 143 q 390 128 431 143 l 390 206 "},"":{"ha":711,"x_min":63,"x_max":650,"o":"m 650 306 l 650 396 l 63 396 l 63 306 l 650 306 m 399 56 l 399 644 l 308 644 l 308 56 l 399 56 "},"":{"ha":924,"x_min":1,"x_max":933,"o":"m 171 385 q 132 396 150 396 q 92 389 107 394 q 28 311 28 365 q 43 258 28 285 q 85 211 58 231 q 217 174 129 176 l 260 172 q 276 131 272 142 q 296 93 286 111 q 347 32 321 56 q 456 -18 399 -18 q 525 14 496 -18 q 551 88 551 40 q 518 172 551 147 l 500 138 q 478 111 493 125 l 465 100 l 453 93 l 439 89 l 426 88 q 308 172 357 88 q 414 189 364 172 q 532 268 483 211 q 581 396 581 325 l 578 425 l 574 444 q 644 488 607 468 q 699 507 674 503 q 696 460 696 479 q 696 419 696 419 l 693 249 l 693 158 q 744 106 717 128 q 797 74 772 85 l 790 504 q 793 529 790 513 l 793 581 l 797 656 l 804 732 l 933 732 l 933 775 l 1 775 l 1 732 l 456 731 q 418 699 453 708 l 372 686 l 311 674 l 247 658 l 194 635 l 174 621 l 158 607 l 150 592 l 147 578 l 150 553 l 158 528 l 171 501 l 189 476 q 274 425 226 425 l 289 428 l 308 436 q 378 467 343 457 q 469 479 421 479 q 533 444 518 479 l 538 425 q 460 299 538 350 q 274 249 382 249 q 244 310 261 282 q 171 385 210 368 m 140 325 q 231 242 186 325 l 169 244 l 119 253 l 86 265 q 76 283 76 275 l 81 300 q 94 314 86 311 l 114 322 q 140 325 124 325 m 515 657 q 565 704 565 676 l 503 732 l 790 732 l 707 703 l 707 688 l 706 663 q 700 633 703 644 q 700 596 700 596 l 699 549 q 546 507 635 549 q 413 556 506 556 q 238 488 322 556 q 217 529 217 503 l 219 542 l 229 556 l 244 568 l 267 581 q 328 604 292 594 q 392 619 336 607 l 460 635 l 515 657 "},"":{"ha":778,"x_min":3,"x_max":786,"o":"m 183 349 q 260 339 208 342 q 179 311 204 324 q 117 271 142 292 q 65 172 65 228 q 149 51 65 100 q 343 1 232 1 q 477 16 415 1 q 589 56 539 31 q 693 186 693 108 q 662 267 693 229 q 589 319 631 304 q 513 332 547 335 l 472 329 l 442 325 q 629 404 568 361 q 700 501 700 454 q 692 542 700 522 q 636 604 671 590 q 594 621 621 617 l 594 732 l 786 732 l 786 775 l 3 775 l 3 732 l 581 732 l 499 704 l 499 619 q 385 682 465 682 q 158 622 251 682 q 65 479 65 563 q 79 426 65 450 q 183 349 114 367 m 404 68 q 260 57 354 60 l 206 63 q 129 103 153 75 q 119 131 119 118 q 138 181 119 156 q 276 275 175 233 q 385 311 338 300 q 360 283 368 297 l 343 249 l 385 271 q 424 286 396 276 l 461 294 q 499 297 474 297 l 551 292 q 626 250 607 279 q 638 221 638 238 q 575 129 638 165 q 404 68 500 85 m 624 535 q 322 368 624 474 q 246 375 283 368 q 183 397 201 388 q 128 472 128 426 l 133 494 l 153 519 l 183 544 l 224 569 q 414 619 324 619 q 499 578 476 619 l 507 563 q 518 556 510 560 l 526 558 l 540 567 l 550 574 l 561 581 l 569 586 l 581 592 q 624 535 624 581 "},"":{"ha":1047,"x_min":60,"x_max":989,"o":"m 989 640 l 915 714 l 840 640 l 914 568 l 989 640 m 600 633 l 526 707 l 451 633 l 525 561 l 600 633 m 208 632 l 135 706 l 60 632 l 133 560 l 208 632 "},"":{"ha":944,"x_min":8,"x_max":964,"o":"m 203 550 q 156 564 181 567 q 75 526 107 564 q 43 436 43 488 q 56 375 43 403 q 147 292 92 314 q 226 279 190 276 l 246 281 l 267 283 q 311 185 288 225 q 421 60 358 100 q 476 43 453 43 q 508 50 497 46 q 554 106 544 71 q 561 144 561 121 q 526 226 554 199 q 508 169 526 189 q 442 144 485 144 q 406 154 421 147 q 369 186 385 168 q 308 297 339 221 q 464 385 403 333 q 547 501 531 440 q 607 547 574 535 q 701 564 650 564 q 756 554 731 564 q 833 458 833 522 q 819 378 833 415 q 665 256 774 256 l 624 261 q 594 278 606 268 l 617 224 l 643 181 q 693 144 665 144 q 829 210 775 144 q 883 368 883 275 q 868 472 883 422 q 800 586 844 542 q 679 635 747 635 q 644 632 660 635 q 554 592 594 622 q 546 635 554 606 l 528 672 q 501 704 521 688 l 469 732 l 964 732 l 964 775 l 8 775 l 8 732 l 204 731 q 156 654 156 708 q 338 703 210 703 q 404 693 374 703 q 513 564 513 656 q 497 508 513 536 q 303 382 443 415 q 281 456 294 422 q 203 550 253 524 m 206 344 l 156 339 l 133 344 l 115 360 l 103 383 l 99 410 q 106 439 101 431 l 128 465 l 156 486 q 183 493 169 493 l 193 490 l 204 483 l 213 472 l 224 456 q 253 360 242 428 q 206 344 231 347 m 625 378 l 594 278 l 682 253 l 718 293 l 742 321 l 850 210 l 901 101 l 944 133 l 910 233 l 838 338 l 774 397 l 714 421 l 625 378 "},"":{"ha":743,"x_min":4,"x_max":746,"o":"m 668 457 l 707 515 q 643 524 694 528 q 574 524 585 519 q 525 526 560 529 q 472 521 476 521 q 439 521 460 521 q 290 493 364 518 l 254 500 l 228 511 l 218 517 l 211 524 l 207 529 l 207 535 q 224 561 210 550 q 331 600 251 585 q 365 611 361 610 q 424 619 396 615 l 490 633 l 542 650 l 574 668 q 585 690 585 679 l 514 732 l 746 732 l 746 775 l 4 775 l 4 732 l 486 731 q 446 703 482 717 q 332 675 369 682 l 236 654 l 164 633 q 103 583 103 608 q 113 550 103 567 q 139 518 124 533 q 154 506 144 513 q 236 472 174 486 q 103 378 149 429 q 53 269 53 321 q 118 111 53 182 q 268 21 178 49 q 403 1 331 1 q 599 53 510 1 l 604 101 q 403 51 521 51 q 225 99 299 51 q 151 213 151 146 q 178 311 151 265 q 299 419 217 381 q 486 458 381 458 l 668 457 "},"":{"ha":528,"x_min":43,"x_max":500,"o":"m 444 564 q 500 700 500 624 q 469 785 500 754 q 400 815 439 815 l 369 810 q 344 793 356 804 q 324 740 324 772 l 329 710 q 350 686 338 696 q 414 667 372 667 l 411 685 l 413 678 l 414 667 l 408 638 q 393 611 401 619 q 294 560 363 576 l 279 553 l 265 542 l 257 531 l 254 521 q 290 503 254 503 l 303 503 q 379 517 346 503 q 444 564 413 531 m 233 563 q 290 700 290 624 q 260 785 290 754 q 190 815 229 815 l 160 810 q 135 793 146 804 q 114 740 114 772 l 119 710 q 140 686 128 696 q 204 667 163 667 l 201 685 l 203 678 l 204 667 l 199 638 q 183 611 192 619 q 85 560 153 576 l 69 554 l 56 543 l 46 531 l 43 521 q 79 503 43 503 l 92 503 q 205 533 176 503 q 233 563 233 563 "},"":{"ha":799,"x_min":3,"x_max":829,"o":"m 3 732 l 124 731 q 68 507 68 640 q 133 279 68 372 q 292 186 199 186 q 414 221 356 186 q 501 313 467 253 l 501 144 q 606 75 543 94 l 600 186 q 696 417 643 338 q 810 507 757 507 q 829 535 829 513 l 824 557 q 810 564 818 564 q 743 553 774 564 q 600 396 640 515 l 600 499 q 601 553 600 519 q 603 607 603 593 l 604 693 l 606 732 l 829 732 l 829 775 l 3 775 l 3 732 m 414 335 q 278 256 353 258 q 222 265 254 254 q 178 299 200 275 q 138 403 138 342 q 243 704 138 579 l 151 732 l 592 732 l 508 703 l 504 663 l 501 578 l 501 535 q 444 373 475 411 q 414 335 414 335 "},"":{"ha":528,"x_min":1,"x_max":725,"o":"m 368 261 q 303 244 343 247 q 276 242 286 243 q 187 300 224 240 q 151 436 150 360 l 153 490 l 157 538 l 164 581 l 178 621 l 429 318 q 403 286 419 297 l 368 261 m 1 732 l 108 731 q 67 507 67 681 q 144 278 67 383 q 318 172 222 172 q 388 182 349 172 q 547 333 500 222 l 486 425 l 481 413 l 465 382 l 457 369 l 200 669 l 214 704 l 151 732 l 547 732 l 547 775 l 1 775 l 1 732 m 725 732 l 725 775 l 383 775 l 383 732 l 579 732 l 496 703 l 492 661 l 490 272 l 496 144 q 593 74 538 96 q 582 238 583 168 q 579 425 579 428 l 582 578 l 593 732 l 725 732 "},"":{"ha":0,"x_min":-657,"x_max":-15,"o":"m -414 63 q -476 69 -450 71 q -603 32 -553 67 q -657 -54 -657 -6 q -630 -133 -657 -96 q -562 -183 -603 -171 q -503 -194 -536 -194 q -458 -187 -483 -194 l -415 -167 l -396 -153 l -382 -139 l -374 -124 l -371 -110 q -379 -74 -371 -90 q -407 -42 -393 -54 l -417 -33 l -432 -24 l -440 -21 l -436 -40 l -435 -62 q -444 -89 -437 -78 l -472 -114 l -493 -125 l -512 -133 l -532 -136 l -553 -137 q -575 -133 -564 -139 l -596 -124 l -608 -108 q -614 -90 -614 -99 q -565 -22 -614 -50 q -449 7 -517 7 q -351 -17 -404 7 q -231 -89 -279 -49 l -174 -136 l -128 -185 l -108 -207 l -93 -232 l -81 -254 l -74 -278 l -15 -236 q -207 -32 -56 -137 q -246 -7 -231 -15 q -326 33 -299 21 q -351 44 -333 38 q -396 58 -378 54 q -414 63 -414 63 "},"":{"ha":590,"x_min":-206,"x_max":725,"o":"m -132 565 q -51 521 -101 539 q -81 503 -60 515 q -139 458 -111 483 q -196 382 -176 424 q -206 339 -206 361 q -139 219 -206 267 q 17 172 -72 172 l 57 172 l 83 174 l 103 175 l 122 178 l 139 146 q 167 97 149 125 q 218 38 194 63 l 244 15 q 272 0 257 6 l 297 -8 l 325 -12 l 333 -10 l 343 -4 l 351 6 l 360 19 q 375 58 369 35 l 388 108 l 369 99 q 325 89 354 90 l 297 88 q 158 193 219 83 q 226 224 203 210 q 313 306 292 263 q 325 354 325 331 q 290 438 325 403 q 214 472 256 472 q 161 463 188 472 q 96 414 121 449 q 74 339 71 379 l 76 292 l 88 256 q 3 235 29 239 l -37 235 l -75 240 q -107 257 -92 246 l -129 281 q -136 311 -136 293 q -118 368 -136 338 q 24 483 -83 424 q 140 536 42 493 q 251 600 213 568 q 297 675 297 638 q 268 763 297 724 q 197 818 239 803 q 131 829 167 829 q -79 775 17 829 l -124 750 l -157 722 l -178 694 q -183 668 -183 682 q -132 565 -183 611 m 100 590 q 54 567 58 568 l 3 549 l -35 564 q -65 586 -49 569 q -87 640 -87 608 l -82 661 l -67 685 l -40 710 l -4 735 l 35 756 l 75 769 q 100 775 92 775 q 128 777 108 775 q 158 779 149 779 q 190 775 179 779 l 217 765 q 235 749 231 757 q 240 731 240 742 q 224 685 240 707 q 100 590 186 636 m 242 326 q 131 269 207 299 l 125 281 q 122 297 122 286 l 125 317 l 135 339 l 142 350 l 150 361 l 168 382 q 254 425 207 426 q 283 388 283 424 q 242 326 278 350 m 438 571 l 438 619 l 392 618 l 351 614 l 311 607 l 268 597 l 271 553 q 283 521 275 533 q 438 571 356 571 m 368 732 l 368 775 l 347 775 l 369 732 l 368 732 m 725 732 l 725 775 l 383 775 l 383 732 l 579 732 l 496 703 l 492 661 l 490 272 l 496 144 q 593 74 538 96 q 582 238 583 168 q 579 425 579 428 l 582 578 l 593 732 l 725 732 "},"":{"ha":875,"x_min":-10,"x_max":883,"o":"m 94 650 l 19 635 l 7 588 l 4 564 q 69 596 38 583 q 313 635 176 635 q 350 633 339 635 q 443 610 408 626 q 494 556 494 585 q 456 500 489 521 q 392 479 413 483 q 368 479 368 479 l 344 481 l 313 486 l 257 493 q 217 460 232 493 l 204 424 l 200 382 q 217 286 200 325 q 272 211 235 247 q 438 144 338 144 q 513 156 476 144 q 624 244 589 186 q 647 313 643 276 l 656 144 q 753 74 699 90 q 746 150 747 126 l 742 233 q 739 282 739 289 l 739 504 q 742 529 739 513 l 742 581 l 746 656 l 753 732 l 883 732 l 883 775 l -10 775 l -10 732 l 739 732 l 656 703 l 651 638 l 649 581 l 647 519 l 647 444 q 571 293 632 354 q 418 226 506 226 q 256 296 306 226 q 243 339 243 319 l 246 363 l 256 383 l 269 397 q 285 403 276 403 l 349 396 l 368 396 q 403 399 389 396 q 486 440 447 407 q 536 549 536 490 q 471 640 536 603 q 313 675 400 679 l 246 672 l 172 664 l 94 650 "},"":{"ha":743,"x_min":4,"x_max":746,"o":"m 154 506 q 236 472 174 486 q 103 378 149 429 q 53 269 53 321 q 118 111 53 182 q 268 21 178 49 q 403 1 331 1 q 599 53 510 1 l 604 101 q 403 51 521 51 q 225 99 299 51 q 151 213 151 146 q 178 311 151 265 q 299 419 217 381 q 486 458 381 458 l 528 453 q 563 440 546 450 q 590 396 590 422 q 547 303 590 343 q 438 263 504 263 q 383 271 408 263 q 340 292 357 279 l 328 297 l 315 306 l 313 306 l 321 285 l 338 263 l 357 242 l 381 225 q 472 186 439 183 l 507 189 l 544 197 l 581 213 l 613 231 l 640 253 q 678 303 672 278 l 683 325 q 668 399 683 364 q 553 506 631 479 q 472 521 518 521 q 439 521 460 521 q 290 493 364 518 l 254 500 l 228 511 l 218 517 l 211 524 l 207 529 l 207 535 q 224 561 210 550 q 331 600 251 585 q 365 611 361 610 q 424 619 396 615 l 490 633 l 542 650 l 574 668 q 585 690 585 679 l 514 732 l 746 732 l 746 775 l 4 775 l 4 732 l 486 731 q 446 703 482 717 q 332 675 369 682 l 236 654 l 164 633 q 103 583 103 608 q 113 550 103 567 q 139 518 124 533 q 154 506 144 513 "},"":{"ha":785,"x_min":3,"x_max":793,"o":"m 278 650 q 235 675 258 669 q 197 672 214 675 q 53 549 53 649 q 106 410 53 469 q 228 354 154 354 q 306 389 264 354 l 306 299 l 214 269 q 163 249 178 258 q 96 150 96 210 q 144 56 96 93 q 263 15 188 15 q 317 28 292 15 q 390 121 371 56 q 401 188 401 149 l 401 249 q 529 269 451 269 l 544 267 l 557 263 l 557 229 q 560 199 560 210 l 563 144 q 661 74 633 82 q 650 238 651 168 q 647 425 647 428 l 650 578 l 661 732 l 793 732 l 793 775 l 3 775 l 3 732 l 389 732 l 306 704 l 306 611 q 278 650 293 638 m 275 89 q 206 57 243 57 l 185 61 l 167 74 l 154 92 q 151 115 151 100 q 206 188 151 165 l 306 228 l 306 172 q 304 146 306 156 q 275 89 296 111 m 292 465 q 192 425 249 432 l 154 431 q 122 449 136 436 q 96 501 96 472 q 107 543 99 525 q 228 606 138 606 l 267 600 q 290 583 282 594 l 304 568 l 311 564 q 353 575 336 567 q 401 613 389 599 l 401 732 l 639 732 l 563 703 q 561 651 563 685 q 560 600 560 614 l 557 396 l 557 285 l 521 339 l 481 338 l 449 336 l 422 332 l 401 326 l 401 465 q 339 493 374 493 l 318 486 l 292 465 "},"":{"ha":993,"x_min":1,"x_max":1003,"o":"m 178 501 q 224 488 197 489 q 154 450 185 474 q 68 343 92 404 q 54 269 54 310 q 160 69 54 136 q 475 1 267 1 l 501 6 l 525 19 l 544 42 q 558 74 554 57 q 404 43 522 43 q 209 92 293 43 q 125 213 125 142 q 235 403 125 324 q 501 479 340 479 q 513 475 508 479 l 521 464 q 526 446 526 454 l 529 426 l 529 346 q 439 256 439 325 q 447 222 439 239 l 475 189 q 538 150 507 150 l 567 154 l 592 168 q 614 214 614 186 l 614 278 q 767 311 694 311 l 768 274 q 771 244 771 254 l 771 225 l 774 176 l 775 144 q 872 74 825 86 l 865 242 q 860 285 863 268 q 860 346 860 346 l 858 425 l 860 474 q 863 501 860 483 l 867 732 l 1003 732 l 1003 775 l 1 775 l 1 732 l 475 731 q 450 704 478 711 q 399 692 440 699 l 306 675 l 226 657 l 164 638 q 110 592 110 621 q 117 558 110 575 q 178 501 133 515 m 403 521 q 288 501 350 518 q 257 493 261 494 l 231 501 l 211 513 l 199 526 l 194 542 q 203 560 194 551 l 231 576 l 286 594 q 333 606 308 601 q 529 668 529 638 q 501 732 524 706 l 858 732 l 775 703 q 768 561 768 654 l 767 326 l 725 382 l 660 378 l 614 369 l 614 410 l 610 428 l 599 447 l 578 464 q 499 510 547 494 q 433 521 464 521 q 403 521 422 521 "},"":{"ha":660,"x_min":63,"x_max":621,"o":"m 482 742 q 383 774 435 774 q 156 679 249 772 q 63 450 63 586 q 140 184 63 294 q 328 74 218 74 q 535 176 450 74 q 621 425 621 278 q 603 557 621 492 q 482 742 565 685 m 478 240 q 272 144 393 149 q 211 158 243 143 q 129 267 149 197 q 117 354 117 307 q 138 488 117 432 q 203 600 161 550 q 411 703 290 703 q 472 686 443 703 q 554 571 528 653 q 567 479 567 531 q 478 240 567 338 "},"":{"ha":8404,"x_min":4996,"x_max":5756,"o":"m 5018 732 l 5139 731 q 5082 507 5082 638 q 5149 277 5082 368 q 5307 186 5217 186 q 5429 221 5374 186 q 5515 313 5481 254 l 5515 144 q 5621 74 5551 101 l 5617 133 l 5615 517 q 5617 565 5615 535 q 5618 615 5618 603 l 5619 696 l 5621 732 l 5756 732 l 5756 775 l 5018 775 l 5018 732 m 5426 333 q 5278 256 5365 261 q 5236 265 5253 258 q 5200 297 5215 278 l 5188 314 q 5167 396 5165 358 l 5171 494 l 5186 581 l 5210 650 l 5243 704 l 5167 732 l 5607 732 l 5515 704 l 5515 535 q 5457 368 5488 404 q 5426 333 5426 333 m 5563 222 l 5563 263 q 4996 88 5129 181 l 5000 74 l 5014 54 l 5022 43 l 5039 24 q 5129 85 5079 57 l 5133 86 q 5185 113 5160 101 q 5315 161 5249 140 q 5496 208 5406 189 l 5563 222 "},"":{"ha":771,"x_min":0,"x_max":779,"o":"m 411 597 q 226 660 321 661 q 108 615 156 658 q 60 507 60 571 q 94 408 60 446 q 131 377 110 386 q 178 368 151 368 q 232 376 210 368 q 308 440 293 400 q 319 488 319 461 q 318 519 319 508 q 290 578 313 557 q 354 565 322 578 q 467 483 413 542 q 515 417 496 451 q 192 292 328 367 q 74 164 74 225 q 122 58 74 100 q 240 15 171 15 q 321 43 283 15 q 371 111 358 71 q 382 172 382 138 q 325 283 382 229 l 374 301 l 442 328 l 508 351 q 549 361 536 361 l 549 144 l 578 111 l 604 89 l 626 75 l 647 74 q 636 238 638 168 q 633 425 633 428 l 636 578 l 647 732 l 779 732 l 779 775 l 0 775 l 0 732 l 633 732 l 557 703 l 557 694 l 558 683 q 556 657 556 674 l 556 631 q 553 601 553 613 l 551 572 q 549 538 549 554 l 549 425 q 411 597 493 539 m 238 89 q 217 82 228 86 l 186 79 l 158 82 l 135 90 l 119 104 l 115 122 q 127 161 115 143 q 167 200 139 179 q 306 269 218 240 q 335 236 326 251 q 346 193 346 211 q 332 156 343 174 q 238 89 293 106 m 211 442 l 172 436 l 143 439 q 106 468 118 446 l 101 488 q 143 546 107 524 l 190 567 q 249 578 215 578 q 276 515 276 550 q 246 460 276 481 q 211 442 229 444 "},"":{"ha":813,"x_min":0,"x_max":811,"o":"m 347 149 q 224 104 285 110 q 172 101 207 103 l 143 103 l 118 111 l 101 122 q 96 136 99 125 q 108 181 96 158 q 197 249 132 219 q 271 269 232 264 l 340 269 l 389 271 l 422 272 l 444 278 q 347 149 422 196 m 521 661 q 481 689 497 690 q 222 613 326 689 q 117 436 117 538 q 125 390 117 411 q 168 331 136 357 q 235 299 200 304 l 201 306 q 82 270 131 306 q 33 186 33 235 q 46 132 33 157 q 201 43 86 43 q 390 111 314 43 q 467 269 467 179 q 493 163 479 200 q 539 76 510 119 q 642 1 588 1 q 685 11 667 1 q 751 115 751 43 l 750 129 l 747 144 q 649 101 707 101 q 603 114 624 101 q 532 203 560 138 q 510 278 517 236 q 673 336 613 296 q 733 425 733 376 q 703 494 728 472 q 635 521 672 521 q 564 510 597 521 q 451 368 451 469 l 451 356 l 453 346 q 429 340 443 340 l 390 340 l 354 339 q 282 346 319 338 q 224 368 251 353 q 172 436 172 393 q 262 567 172 514 q 481 619 351 619 q 517 613 504 617 l 550 592 l 582 606 l 600 615 l 625 632 q 635 650 635 642 l 635 732 l 811 732 l 811 775 l 0 775 l 0 732 l 619 732 l 536 704 l 536 640 q 521 661 528 651 m 701 450 q 704 436 703 447 q 683 406 701 418 q 649 389 674 399 q 536 360 592 365 l 496 354 l 494 360 l 494 367 q 557 447 494 417 q 663 472 607 472 l 679 469 l 693 463 l 701 450 "},"":{"ha":590,"x_min":86,"x_max":553,"o":"m 432 763 q 511 800 461 792 l 525 806 l 539 815 l 549 825 l 553 836 q 543 851 551 846 q 517 857 535 857 l 504 854 l 461 850 l 425 839 l 393 819 q 364 794 376 810 q 308 658 308 731 q 343 571 308 601 q 411 543 374 543 l 440 547 l 465 561 q 488 617 488 583 l 482 646 l 468 667 q 442 685 457 679 q 404 693 426 690 l 410 731 q 432 763 418 749 m 242 783 q 289 800 260 794 l 303 806 l 317 815 l 326 825 l 331 836 q 321 851 329 846 q 294 857 313 857 l 282 854 l 239 850 l 203 839 l 171 819 q 142 794 154 810 q 86 658 86 731 q 121 571 86 601 q 189 543 151 543 l 218 547 l 243 561 q 265 617 265 583 l 260 646 l 246 667 q 219 682 236 676 q 183 693 208 689 l 189 731 q 242 783 206 771 "},"":{"ha":1058,"x_min":63,"x_max":996,"o":"m 544 883 l 482 947 l 417 885 l 481 819 l 544 883 m 704 788 l 636 853 q 481 760 575 760 q 319 838 374 760 l 307 831 q 511 688 360 688 q 704 788 633 688 m 996 453 q 956 576 996 521 q 844 638 910 638 q 703 567 776 638 q 575 385 594 411 q 472 322 529 322 q 432 329 451 322 q 404 342 429 329 q 447 443 447 393 q 438 507 447 472 q 271 632 408 608 q 242 635 254 635 q 156 621 206 635 q 78 589 106 607 l 126 478 q 173 516 139 494 q 229 543 207 538 q 297 554 271 554 q 376 485 376 554 q 294 394 376 438 q 165 343 196 343 l 225 243 q 332 286 288 253 q 350 300 338 290 q 410 204 410 269 l 410 190 q 407 176 410 185 q 293 93 392 106 q 165 143 239 86 q 96 218 103 192 l 63 185 q 143 76 63 151 q 311 -8 235 -8 q 329 -7 325 -8 q 429 25 393 -1 q 479 126 465 51 q 482 143 479 132 l 482 158 q 453 264 482 217 q 522 249 503 249 q 563 260 542 249 l 607 283 q 710 400 656 308 q 767 319 728 353 q 856 282 810 282 q 960 338 919 282 q 996 453 996 388 m 940 464 q 913 399 940 426 q 847 371 885 371 q 787 394 814 371 q 760 451 760 418 q 797 530 760 492 q 874 560 833 568 q 940 464 940 546 "},"":{"ha":813,"x_min":-12,"x_max":815,"o":"m 501 732 l 815 732 l 815 775 l -12 775 l -12 732 l 342 731 l 307 714 q 281 692 288 700 l 269 679 l 263 667 l 258 653 l 257 640 q 269 582 257 608 q 336 511 286 543 l 357 501 q 390 493 372 493 l 406 499 l 431 514 l 458 533 l 481 549 q 635 583 547 583 l 660 579 l 681 569 l 693 554 q 699 535 699 544 q 606 437 699 478 q 376 396 514 396 q 179 440 271 396 q 96 549 96 490 q 153 675 96 632 l 133 664 l 107 647 l 83 632 l 68 619 q 54 569 54 603 q 139 410 54 475 q 342 346 224 346 q 257 249 257 303 q 306 172 263 208 q 382 144 339 144 l 414 154 q 481 189 415 154 q 550 215 518 208 q 642 226 599 226 l 663 224 l 682 217 l 694 206 l 699 193 q 607 104 699 143 q 376 65 515 65 q 265 75 326 65 q 174 110 215 88 q 90 213 90 153 q 124 325 90 283 l 93 307 l 72 286 q 58 261 63 276 l 54 235 l 60 185 l 67 164 q 110 99 78 131 l 150 65 q 261 17 197 33 q 404 1 319 1 q 633 53 542 1 q 725 172 725 104 q 685 251 725 214 q 586 283 643 283 q 560 283 576 283 q 467 256 506 281 q 319 199 394 199 l 308 201 l 306 213 q 322 249 308 231 q 422 313 353 289 q 501 339 469 331 q 661 388 597 339 q 725 507 725 438 q 698 587 725 549 q 631 638 671 625 q 572 649 607 649 q 497 639 531 649 q 418 606 449 625 l 407 599 l 399 592 l 388 585 l 360 565 l 349 564 q 328 597 328 564 q 340 635 328 617 q 515 718 379 692 l 501 732 "},"":{"ha":736,"x_min":0,"x_max":742,"o":"m 117 457 q 158 450 144 451 q 74 325 74 407 q 90 256 74 288 q 144 196 113 221 q 313 144 210 143 l 385 146 l 425 150 q 453 89 440 110 q 578 1 507 1 q 615 11 600 4 q 647 43 635 24 q 676 144 676 81 q 660 111 671 126 l 638 86 q 578 65 611 65 q 549 71 560 65 q 467 158 511 85 q 546 186 531 176 q 633 246 600 208 q 663 311 663 276 q 656 356 663 333 q 564 425 631 425 q 432 387 486 425 q 382 297 378 349 l 385 257 q 397 226 389 239 q 344 215 381 219 q 326 213 339 215 l 258 213 l 204 218 l 182 226 q 126 264 151 236 q 117 297 117 279 l 122 319 q 140 344 129 333 l 168 367 l 208 390 q 300 425 246 413 q 397 436 347 436 q 326 507 354 507 l 288 500 l 221 479 l 186 482 l 157 492 l 136 506 q 131 521 131 513 q 146 558 131 542 q 197 590 161 575 q 260 611 239 607 q 354 619 317 622 l 393 617 l 426 608 q 451 594 446 601 q 467 578 463 589 l 479 567 q 496 564 485 564 l 507 567 l 564 607 l 564 732 l 742 732 l 742 775 l 0 775 l 0 732 l 550 732 l 467 704 l 467 619 q 354 689 421 689 q 292 686 318 689 q 136 647 201 676 q 49 549 49 607 q 57 508 51 522 q 117 457 68 479 m 632 364 q 635 354 633 363 q 619 322 632 338 q 542 272 594 293 l 535 269 q 511 261 519 264 l 425 235 q 488 333 425 281 q 606 382 547 382 l 617 379 l 626 374 l 632 364 "},"":{"ha":535,"x_min":71,"x_max":475,"o":"m 407 307 q 475 374 433 353 l 458 385 l 447 393 l 433 404 l 413 425 l 406 436 l 394 458 l 386 483 q 381 508 382 493 l 379 824 q 333 942 379 888 q 224 996 286 996 l 211 996 l 203 994 l 193 992 l 182 990 l 71 990 l 71 947 l 179 946 q 274 910 232 946 q 315 822 315 874 l 315 533 l 318 503 l 329 467 l 340 439 l 356 421 l 426 374 l 411 364 l 401 358 l 378 340 l 361 326 l 343 301 l 329 267 l 318 231 l 315 -82 q 278 -169 315 -146 q 179 -199 243 -199 l 71 -199 l 71 -253 l 182 -253 q 224 -250 207 -253 q 319 -211 282 -240 q 379 -85 379 -165 l 379 204 l 385 256 q 407 307 394 286 "},"":{"ha":306,"x_min":-15,"x_max":981,"o":"m 151 775 l -15 775 l -15 732 l 174 732 l 97 703 q 90 614 90 663 l 90 279 l 97 144 q 194 74 147 89 q 182 235 183 183 q 179 425 179 424 l 182 581 l 194 732 l 325 732 l 325 775 l 208 774 l 178 783 q 132 858 132 810 q 150 919 132 890 q 200 976 171 956 q 335 1039 256 1039 q 457 1022 393 1039 q 572 972 521 1004 q 732 789 681 903 l 760 788 q 590 1021 699 939 q 335 1110 472 1110 q 150 1032 246 1110 q 54 886 54 954 l 60 850 q 81 818 74 826 q 151 775 108 785 m 947 1181 q 868 1207 910 1208 q 718 1154 776 1204 q 660 1032 660 1104 q 776 867 660 946 l 826 865 q 736 1018 736 928 q 777 1103 736 1071 q 875 1136 818 1136 q 913 1135 900 1136 q 981 1108 957 1129 q 973 1149 981 1131 q 947 1181 965 1167 "},"":{"ha":306,"x_min":-15,"x_max":871,"o":"m 151 775 l -15 775 l -15 732 l 174 732 l 97 703 q 90 614 90 663 l 90 279 l 97 144 q 194 74 147 89 q 182 235 183 183 q 179 425 179 424 l 182 581 l 194 732 l 325 732 l 325 775 l 208 774 l 178 783 q 132 858 132 810 q 150 919 132 890 q 200 976 171 956 q 335 1039 256 1039 q 457 1022 393 1039 q 572 972 521 1004 q 732 789 681 903 l 760 788 q 590 1021 699 939 q 335 1110 472 1110 q 150 1032 246 1110 q 54 886 54 954 l 60 850 q 81 818 74 826 q 151 775 108 785 m 850 932 q 871 979 871 953 l 865 1006 q 849 1028 860 1019 q 801 1049 828 1049 l 775 1043 l 753 1026 q 732 979 732 1006 l 738 953 l 753 931 q 775 915 764 919 l 801 911 l 828 917 l 850 932 "},"":{"ha":326,"x_min":-237,"x_max":343,"o":"m 117 875 q 128 775 128 822 l -6 775 l -6 732 l 185 732 l 108 703 l 103 663 l 101 271 l 108 144 q 204 74 149 94 q 193 238 194 168 q 190 425 190 428 l 193 578 l 204 732 l 336 732 l 336 775 l 169 774 q 107 1010 169 910 q -40 1110 44 1110 l -74 1106 l -107 1092 l -139 1069 l -172 1039 l -200 1003 l -221 969 l -233 933 l -237 899 l -232 861 l -218 829 l -194 803 l -168 789 l -96 788 l -124 797 l -146 815 q -167 864 -167 836 q -156 932 -167 901 q -12 1039 -117 1039 q 40 1019 14 1039 q 117 875 96 975 m 322 876 q 343 924 343 897 l 338 950 q 321 972 332 964 q 274 993 300 993 l 247 988 l 225 971 q 204 924 204 950 l 210 897 l 225 875 q 247 860 236 864 l 274 856 l 300 861 l 322 876 "},"":{"ha":326,"x_min":-237,"x_max":343,"o":"m 117 875 q 128 775 128 822 l -6 775 l -6 732 l 185 732 l 108 703 l 103 663 l 101 271 l 108 144 q 204 74 149 94 q 193 238 194 168 q 190 425 190 428 l 193 578 l 204 732 l 336 732 l 336 775 l 169 774 q 107 1010 169 910 q -40 1110 44 1110 l -74 1106 l -107 1092 l -139 1069 l -172 1039 l -200 1003 l -221 969 l -233 933 l -237 899 l -232 861 l -218 829 l -194 803 l -168 789 l -96 788 l -124 797 l -146 815 q -167 864 -167 836 q -156 932 -167 901 q -12 1039 -117 1039 q 40 1019 14 1039 q 117 875 96 975 m 322 876 q 343 924 343 897 l 338 950 q 321 972 332 964 q 274 993 300 993 l 247 988 l 225 971 q 204 924 204 950 l 210 897 l 225 875 q 247 860 236 864 l 274 856 l 300 861 l 322 876 "},"":{"ha":306,"x_min":-15,"x_max":960,"o":"m 151 775 l -15 775 l -15 732 l 174 732 l 97 703 q 90 614 90 663 l 90 279 l 97 144 q 194 74 147 89 q 182 235 183 183 q 179 425 179 424 l 182 581 l 194 732 l 325 732 l 325 775 l 208 774 l 178 783 q 132 858 132 810 q 150 919 132 890 q 200 976 171 956 q 335 1039 256 1039 q 457 1022 393 1039 q 572 972 521 1004 q 732 789 681 903 l 760 788 q 590 1021 699 939 q 335 1110 472 1110 q 150 1032 246 1110 q 54 886 54 954 l 60 850 q 81 818 74 826 q 151 775 108 785 m 926 1208 q 847 1235 889 1236 q 697 1182 756 1232 q 639 1060 639 1132 q 756 894 639 974 l 806 893 q 715 1046 715 956 q 756 1131 715 1099 q 854 1164 797 1164 q 892 1163 879 1164 q 960 1136 936 1157 q 952 1176 960 1158 q 926 1208 944 1194 m 839 1090 l 819 1074 l 803 1054 l 797 1040 l 803 1024 l 819 1006 l 829 994 l 839 988 l 847 983 l 854 983 l 868 989 l 897 1014 l 903 1021 l 908 1031 l 910 1040 l 904 1054 l 888 1074 q 869 1090 878 1086 l 854 1096 l 839 1090 "},"":{"ha":326,"x_min":-237,"x_max":507,"o":"m 117 875 q 128 775 128 822 l -6 775 l -6 732 l 185 732 l 108 703 l 103 663 l 101 271 l 108 144 q 204 74 149 94 q 193 238 194 168 q 190 425 190 428 l 193 578 l 204 732 l 336 732 l 336 775 l 169 774 q 107 1010 169 910 q -40 1110 44 1110 l -74 1106 l -107 1092 l -139 1069 l -172 1039 l -200 1003 l -221 969 l -233 933 l -237 899 l -232 861 l -218 829 l -194 803 l -168 789 l -96 788 l -124 797 l -146 815 q -167 864 -167 836 q -156 932 -167 901 q -12 1039 -117 1039 q 40 1019 14 1039 q 117 875 96 975 m 499 1081 q 413 1138 476 1139 q 322 1124 363 1136 q 219 1060 260 1104 q 175 949 175 1011 q 182 901 175 925 l 204 858 q 279 803 233 818 l 336 801 q 253 933 253 835 q 308 1022 258 983 l 333 1042 q 361 1057 347 1053 l 374 1061 l 388 1065 l 400 1067 l 413 1067 q 432 1067 419 1067 q 507 1039 474 1064 q 499 1081 504 1065 "},"":{"ha":0,"x_min":-647,"x_max":24,"o":"m -582 1106 l -606 1096 q -628 1049 -617 1081 q -642 1010 -637 1029 l -647 978 l -646 969 l -640 969 q -601 994 -618 988 q -557 1004 -578 1004 q -515 997 -529 1001 l -474 976 q -399 901 -429 949 l -362 858 q -279 788 -326 815 q -233 764 -257 772 l -147 763 q -276 832 -228 792 q -369 942 -325 872 l -414 1011 l -458 1064 q -501 1100 -475 1085 q -537 1110 -519 1110 q -582 1106 -565 1110 m -236 1094 q -260 1110 -253 1113 q -353 1085 -317 1110 q -369 1026 -372 1071 l -368 1006 l -364 983 l -357 969 q -279 1026 -312 1026 q -250 1018 -261 1024 q -206 972 -218 1003 l -190 936 q -139 846 -167 881 q -60 764 -103 801 l -18 782 q -46 800 -32 788 l -79 838 l -117 893 l -162 969 l -185 1011 l -208 1053 q -236 1094 -225 1082 m 3 967 q 24 1014 24 988 l 18 1040 q 1 1063 13 1053 q -44 1083 -14 1083 l -71 1078 q -93 1061 -85 1072 q -114 1014 -114 1040 l -108 988 q -93 965 -101 972 q -71 950 -83 954 l -44 946 l -18 951 l 3 967 "},"":{"ha":0,"x_min":-639,"x_max":-100,"o":"m -565 1103 q -599 1082 -590 1096 l -614 1058 q -628 1035 -626 1039 l -636 1010 q -639 982 -639 1001 l -633 968 q -618 964 -626 964 l -600 969 l -585 985 l -565 1003 l -544 1015 l -522 1024 q -500 1026 -515 1026 q -171 764 -433 1026 l -142 790 l -218 868 l -308 964 l -374 1031 l -418 1072 q -500 1110 -458 1110 q -553 1106 -540 1110 q -565 1103 -565 1103 m -105 976 q -100 1000 -101 988 l -106 1026 q -122 1049 -111 1040 q -169 1069 -143 1069 l -196 1064 q -218 1047 -210 1058 q -239 1000 -239 1026 l -233 974 q -218 951 -226 958 q -196 936 -208 940 l -169 932 l -143 938 l -119 953 q -107 970 -108 964 q -105 976 -105 976 "},"":{"ha":493,"x_min":47,"x_max":458,"o":"m 257 774 q 146 743 203 774 q 115 725 121 731 l 100 713 l 86 700 l 75 686 l 65 674 l 51 649 l 47 626 l 51 608 l 64 586 l 85 557 l 115 521 l 115 526 l 114 533 q 165 642 114 592 q 297 703 228 703 l 340 697 l 378 683 q 410 635 410 663 q 389 569 410 603 q 325 507 375 546 l 257 454 l 207 403 q 188 378 196 392 q 165 311 164 336 l 167 290 l 174 272 l 182 260 l 192 256 l 197 257 l 206 263 q 325 396 224 325 q 458 564 458 489 q 424 681 458 628 q 332 758 390 733 q 257 774 296 774 m 182 206 l 160 186 q 138 144 138 161 l 143 125 l 160 100 l 182 79 l 200 74 l 217 79 l 239 100 l 256 125 q 263 144 263 136 q 256 163 260 157 l 239 186 l 218 206 q 200 213 211 213 q 182 206 186 210 "},"":{"ha":394,"x_min":36,"x_max":360,"o":"m 111 -126 l 360 736 l 282 756 l 36 -106 l 111 -126 "},"":{"ha":1896,"x_min":4174,"x_max":4732,"o":"m 4311 506 l 4278 511 l 4253 506 q 4232 490 4240 500 q 4219 468 4224 481 l 4215 442 q 4283 224 4215 306 q 4467 142 4350 142 q 4506 144 4489 142 q 4611 190 4560 154 q 4732 325 4685 243 l 4681 438 q 4646 356 4668 396 q 4586 288 4624 317 q 4431 233 4514 233 q 4308 273 4357 233 q 4258 365 4258 313 q 4297 414 4264 410 l 4371 407 l 4396 407 q 4469 419 4436 407 q 4535 461 4511 439 q 4574 517 4558 483 q 4590 588 4590 551 q 4586 626 4590 607 q 4535 728 4575 678 l 4732 728 l 4732 769 l 4174 769 l 4174 728 l 4396 726 q 4449 717 4421 726 q 4524 651 4504 697 q 4535 608 4535 633 q 4522 564 4535 586 q 4363 490 4478 490 l 4350 490 l 4338 493 l 4324 497 l 4311 506 "},"":{"ha":799,"x_min":4,"x_max":803,"o":"m 189 507 q 236 488 210 496 q 157 446 189 467 q 65 338 89 399 q 53 269 53 306 q 161 69 53 136 q 472 1 269 1 q 557 74 533 1 q 403 43 521 43 q 344 46 368 43 q 143 139 208 61 q 124 199 124 167 q 150 304 124 257 q 233 392 176 351 q 354 453 289 433 q 500 472 440 478 l 532 469 l 560 461 q 585 436 576 454 l 578 424 q 558 411 571 417 q 521 401 544 406 l 474 393 q 422 378 444 388 q 375 350 393 364 q 332 278 332 315 q 394 183 332 222 q 542 144 456 144 q 692 185 633 144 q 751 283 751 225 l 746 297 l 733 311 l 714 321 l 704 322 l 697 325 q 685 321 693 325 l 683 311 q 621 222 683 254 q 589 206 603 210 q 472 186 535 186 l 446 189 l 422 197 l 407 211 l 403 226 q 436 289 403 264 q 518 325 469 314 l 563 335 l 597 351 q 626 388 626 365 q 613 439 626 414 q 521 511 582 493 q 446 521 481 522 l 381 519 l 332 515 l 296 510 l 271 501 l 251 507 l 236 518 l 225 532 q 222 549 222 538 q 290 588 222 575 l 381 604 l 449 619 l 503 639 l 538 660 q 550 683 550 672 l 486 732 l 803 732 l 803 775 l 4 775 l 4 732 l 472 731 q 449 704 472 710 l 399 692 l 304 675 l 232 657 l 174 636 q 136 614 147 622 q 124 592 124 601 q 132 560 124 578 q 154 533 140 543 l 189 507 "},"":{"ha":799,"x_min":4,"x_max":803,"o":"m 189 507 q 236 488 210 496 q 157 446 189 467 q 65 338 89 399 q 53 269 53 306 q 161 69 53 136 q 472 1 269 1 q 557 74 533 1 q 403 43 521 43 q 344 46 368 43 q 143 139 208 61 q 124 199 124 167 q 150 304 124 257 q 233 392 176 351 q 354 453 289 433 q 500 472 440 478 l 532 469 l 560 461 q 585 436 576 454 l 578 424 q 558 411 571 417 q 521 401 544 406 l 474 393 q 422 378 444 388 q 375 350 393 364 q 332 278 332 315 q 394 183 332 222 q 542 144 456 144 q 692 185 633 144 q 751 283 751 225 l 746 297 l 733 311 l 714 321 l 704 322 l 697 325 q 685 321 693 325 l 683 311 q 621 222 683 254 q 589 206 603 210 q 472 186 535 186 l 446 189 l 422 197 l 407 211 l 403 226 q 436 289 403 264 q 518 325 469 314 l 563 335 l 597 351 q 626 388 626 365 q 613 439 626 414 q 521 511 582 493 q 446 521 481 522 l 381 519 l 332 515 l 296 510 l 271 501 l 251 507 l 236 518 l 225 532 q 222 549 222 538 q 290 588 222 575 l 381 604 l 449 619 l 503 639 l 538 660 q 550 683 550 672 l 486 732 l 803 732 l 803 775 l 4 775 l 4 732 l 472 731 q 449 704 472 710 l 399 692 l 304 675 l 232 657 l 174 636 q 136 614 147 622 q 124 592 124 601 q 132 560 124 578 q 154 533 140 543 l 189 507 "},"":{"ha":944,"x_min":0,"x_max":953,"o":"m 0 775 l 0 732 l 496 731 q 443 697 499 710 q 403 690 421 693 l 300 675 l 228 657 l 169 636 q 132 614 143 622 q 119 592 119 601 q 128 560 119 578 q 150 533 136 543 l 185 507 q 232 488 206 496 q 153 446 185 467 q 61 338 85 399 q 49 269 49 306 q 157 69 49 136 q 468 1 265 1 q 553 74 529 1 q 399 43 517 43 q 343 46 365 43 q 240 72 288 53 q 133 199 133 119 q 243 397 133 314 q 510 479 353 479 l 531 475 q 550 463 542 472 l 563 444 l 567 425 q 556 397 564 408 q 472 358 532 367 q 454 356 467 358 l 414 356 l 385 354 q 350 311 350 349 q 364 246 350 274 q 465 156 396 182 q 538 144 494 144 q 719 228 625 144 l 719 144 l 783 93 q 818 74 808 76 l 814 133 l 813 517 q 814 565 813 535 q 815 615 815 603 l 817 696 l 818 732 l 953 732 l 953 775 l 0 775 m 299 496 l 281 493 l 249 501 l 225 514 l 210 528 q 204 542 207 531 q 214 560 207 553 l 243 576 l 292 590 q 360 606 338 601 l 429 621 l 485 638 q 519 656 510 649 q 532 675 532 668 l 531 693 l 526 707 l 522 713 l 519 719 l 514 725 l 510 732 l 804 732 l 728 703 l 724 628 q 722 609 724 621 q 721 592 721 597 q 721 563 721 563 l 719 490 l 719 396 q 650 260 703 313 q 524 207 593 203 l 474 210 l 433 221 q 407 236 414 229 q 399 256 399 249 q 433 283 399 283 q 557 315 507 283 q 608 396 608 356 q 567 485 608 450 q 468 521 526 521 q 329 507 368 521 l 299 496 "},"":{"ha":785,"x_min":11,"x_max":782,"o":"m 121 592 q 156 526 121 556 q 225 493 185 503 q 247 488 233 490 q 172 447 199 467 q 64 256 64 365 q 258 18 64 67 q 414 1 332 -1 l 489 4 q 533 15 525 11 l 551 36 l 568 74 l 568 81 l 565 88 l 558 92 l 553 94 l 544 92 l 539 88 q 358 29 494 29 q 313 33 336 29 q 200 88 246 44 q 135 226 135 149 q 165 322 135 278 q 390 461 231 421 q 554 479 483 485 l 572 478 l 586 475 l 592 472 l 599 471 l 604 468 l 610 467 l 610 397 l 443 354 l 392 336 l 351 315 l 324 292 q 315 269 315 279 q 326 221 315 246 q 354 179 338 196 q 443 144 389 144 l 471 147 q 493 160 485 151 q 511 199 511 169 q 463 285 511 267 l 610 326 l 610 186 l 640 168 l 679 147 q 694 146 685 146 l 694 436 q 551 514 669 497 q 471 521 513 522 l 411 518 l 364 514 l 322 504 l 288 493 q 236 515 253 501 q 219 549 219 529 q 294 588 225 574 l 328 594 l 392 606 l 479 622 l 526 635 l 547 646 q 554 660 550 649 q 511 732 554 707 l 782 732 l 782 775 l 11 775 l 11 732 l 485 731 q 460 704 488 711 q 408 692 450 699 l 315 675 l 235 657 l 174 638 q 121 592 121 621 m 436 176 q 414 172 435 175 l 396 175 l 381 185 l 369 197 q 367 213 367 203 q 429 269 367 253 q 462 260 453 268 q 471 235 471 253 l 467 208 q 454 189 464 199 l 436 176 "},"":{"ha":507,"x_min":-93,"x_max":521,"o":"m 150 450 q 6 411 86 419 q -25 410 -17 410 l -58 413 l -93 425 q -58 325 -86 378 q 65 343 -8 325 q 240 396 128 358 q 293 360 264 375 q 438 317 368 319 l 521 313 l 514 354 q 283 417 396 354 q 429 592 429 500 q 346 788 429 729 q 254 807 318 807 q 164 793 210 807 q 64 736 104 775 q 17 635 17 692 q 25 585 17 610 l 53 535 q 94 488 71 510 l 150 450 m 272 524 q 192 472 238 499 q 150 501 169 485 l 119 536 q 93 611 93 575 q 113 651 96 632 q 238 719 147 694 q 311 731 278 731 l 340 725 q 367 708 356 719 q 388 654 388 686 q 372 617 385 636 q 306 547 349 578 l 272 524 m 521 732 l 521 775 l 438 775 l 458 732 l 521 732 "},"":{"ha":764,"x_min":-7,"x_max":772,"o":"m 83 643 l 51 619 l 46 610 l 42 597 q 39 583 39 593 l 36 569 q 146 399 36 467 q 203 368 182 376 q 413 329 293 329 l 456 329 l 469 332 q 435 297 469 311 q 364 283 400 283 l 346 283 q 290 281 313 283 q 156 239 214 271 q 79 144 79 196 l 83 114 l 97 86 l 118 60 q 147 39 132 46 l 183 22 l 226 11 l 275 3 l 331 1 q 538 38 442 -1 q 625 122 625 72 q 591 178 625 157 q 513 199 557 199 q 483 199 501 199 q 385 181 433 196 q 313 143 343 168 q 297 108 297 128 l 303 93 l 324 78 q 353 64 339 67 l 388 57 q 310 43 360 43 l 289 43 l 224 47 l 169 63 q 121 108 121 85 l 124 122 l 136 139 l 154 153 q 249 196 185 176 q 321 211 296 207 l 390 224 l 440 235 q 500 254 485 244 q 521 278 521 267 l 517 313 l 507 339 q 651 403 594 354 q 708 507 708 451 q 661 607 708 565 q 556 649 614 649 q 481 639 514 649 q 401 606 432 625 l 379 592 l 354 574 l 340 565 l 331 564 q 311 597 311 564 q 324 632 311 615 q 422 690 346 663 q 499 713 465 706 l 469 732 l 772 732 l 772 775 l -7 775 l -7 732 l 331 731 q 240 640 240 690 q 253 582 240 608 q 319 511 269 543 l 340 501 q 374 493 356 493 l 386 496 l 436 531 l 464 549 q 617 583 531 583 q 643 579 632 583 l 663 569 l 675 554 l 679 535 q 587 436 679 476 q 360 396 494 396 q 161 440 253 396 q 98 491 117 467 q 79 549 79 515 q 136 675 79 635 l 83 643 m 460 81 l 401 65 l 390 75 q 388 93 388 81 q 432 149 388 121 q 481 167 460 163 q 540 172 503 172 l 558 169 l 572 164 q 581 154 575 161 l 583 144 l 581 138 l 576 132 l 568 124 l 557 118 l 521 104 l 489 90 l 460 81 "},"":{"ha":722,"x_min":-210,"x_max":725,"o":"m 457 640 q 400 689 428 692 q 142 613 247 689 q 38 436 38 538 q 114 269 38 340 q 301 199 190 199 l 321 199 l 340 201 q 357 204 346 204 l 372 207 q 472 57 410 113 q 610 1 535 1 q 643 60 633 33 q 656 121 656 93 l 654 131 l 653 144 q 568 93 610 93 q 519 100 547 93 q 414 213 450 126 q 503 239 472 225 q 576 288 540 256 q 639 410 639 342 q 610 503 639 468 q 539 542 576 542 q 388 488 467 542 q 315 388 315 439 q 324 331 315 358 q 351 278 338 300 q 338 274 346 275 q 317 272 329 272 q 296 269 310 269 l 274 269 q 203 279 236 269 q 92 388 92 311 q 183 553 92 486 q 400 619 275 619 q 471 592 442 615 l 501 606 l 519 615 l 544 632 q 554 650 554 642 l 554 732 l 725 732 l 725 775 l -7 775 l -7 732 l 539 732 l 457 704 l 457 640 m 539 479 q 590 436 590 479 q 529 347 590 390 q 386 283 464 301 l 385 290 l 385 300 q 397 358 385 324 q 426 414 408 392 q 539 479 481 479 m 349 106 l 347 165 l 163 125 q 0 75 69 104 l -117 25 q -210 -26 -158 7 l -208 -40 l -206 -56 l -199 -72 l -186 -90 q 26 21 -110 -24 q 349 106 199 78 "},"":{"ha":542,"x_min":-31,"x_max":554,"o":"m 185 626 l 92 626 q 46 629 64 629 l 8 632 l -17 635 l 1 597 l 19 571 q 36 554 28 558 l 50 550 l 211 549 q 92 354 92 486 q 113 246 92 296 q 267 93 154 139 q 372 74 321 71 l 426 76 q 457 88 451 83 l 450 126 l 429 172 q 315 150 385 150 q 251 160 290 150 q 160 232 183 186 q 149 283 149 253 q 185 392 149 336 q 392 549 260 506 q 503 568 451 568 l 515 568 l 529 567 l 542 565 l 554 565 l 511 640 q 443 638 474 640 q 301 606 346 629 l 283 628 l 274 635 q 250 632 265 632 q 219 629 240 629 q 185 626 207 626 m 554 732 l 554 775 l -31 775 l -31 732 l 554 732 "},"":{"ha":556,"x_min":8,"x_max":560,"o":"m 360 646 q 301 660 335 661 q 147 621 208 656 q 36 515 69 576 q 44 458 36 483 q 64 417 51 432 q 118 492 90 461 q 331 592 211 592 q 368 582 350 592 q 421 488 421 549 q 418 450 421 465 q 381 346 408 392 q 274 243 343 283 l 126 158 l 144 124 l 168 81 l 175 76 q 183 74 176 75 q 365 189 238 121 q 560 285 392 201 l 518 360 l 494 353 l 461 335 q 431 315 442 322 l 399 297 q 440 367 428 322 q 456 479 456 406 q 431 578 456 532 q 360 646 406 625 m 560 732 l 560 775 l 8 775 l 8 732 l 560 732 "},"":{"ha":1007,"x_min":-44,"x_max":1006,"o":"m -44 732 l 76 731 l 47 675 l 28 619 l 15 563 q 13 533 13 550 l 13 507 q 80 280 13 374 q 244 186 147 186 q 367 221 308 186 q 454 313 419 253 l 454 144 q 558 75 496 94 l 553 186 q 656 417 596 338 q 790 507 722 507 q 811 500 806 504 l 829 479 l 840 447 l 844 410 q 787 251 844 321 q 643 164 729 181 l 657 133 l 672 108 q 706 88 685 88 l 743 92 l 781 107 l 799 118 l 818 132 l 835 147 l 854 167 q 909 244 889 201 q 929 325 929 288 q 879 497 929 424 q 763 564 833 564 q 696 553 726 564 q 553 396 593 515 l 553 499 q 554 553 553 519 q 556 607 556 593 l 557 693 l 558 732 l 1006 732 l 1006 775 l -44 775 l -44 732 m 367 335 q 231 256 306 258 q 175 265 207 254 q 131 299 153 275 q 90 403 90 342 q 196 697 90 569 l 106 732 l 544 732 l 461 703 l 457 663 l 454 578 l 454 535 q 397 373 428 411 q 367 335 367 335 m 338 224 "},"":{"ha":463,"x_min":63,"x_max":386,"o":"m 386 306 l 386 396 l 63 396 l 63 306 l 386 306 "},"":{"ha":750,"x_min":103,"x_max":664,"o":"m 103 407 l 664 407 l 664 510 l 103 510 l 103 407 "},"":{"ha":278,"x_min":63,"x_max":211,"o":"m 211 785 l 178 818 q 125 753 142 779 q 110 726 115 736 q 71 600 82 685 l 63 540 l 122 481 l 183 540 q 157 604 158 594 q 146 663 146 654 q 151 690 146 678 q 211 785 174 751 "},"":{"ha":278,"x_min":60,"x_max":208,"o":"m 208 769 l 149 829 l 88 769 q 114 703 113 703 q 124 646 124 650 q 119 618 124 631 q 60 525 96 557 l 93 492 q 144 556 128 529 l 163 585 q 186 644 178 608 q 199 708 192 665 l 208 769 "},"":{"ha":0,"x_min":-550,"x_max":17,"o":"m -529 1106 l -537 1110 l -543 1107 l -544 1103 l -547 1099 q -550 1086 -549 1096 l -550 1074 q -462 903 -550 975 q -247 832 -374 832 q -193 836 -219 832 q -60 890 -112 849 q 17 1032 17 951 q 8 1051 17 1042 l -14 1076 q -43 1095 -31 1089 q -64 1101 -56 1101 q -81 1024 -64 1061 q -137 958 -99 988 q -315 900 -212 900 q -440 950 -382 900 l -486 997 q -507 1040 -504 1022 l -512 1075 l -521 1096 l -529 1106 m -223 1010 q -218 1035 -219 1022 l -224 1061 q -240 1083 -229 1075 q -287 1104 -261 1104 l -314 1099 q -336 1082 -328 1093 q -357 1035 -357 1061 l -351 1008 q -336 986 -344 993 q -314 971 -326 975 l -287 967 l -261 972 l -237 988 q -225 1005 -226 999 q -223 1010 -223 1010 "},"":{"ha":310,"x_min":143,"x_max":275,"o":"m 203 393 l 260 451 l 203 510 l 143 451 l 203 393 m 264 14 q 275 42 275 29 q 217 161 275 106 l 163 103 l 203 43 l 203 -3 l 143 -74 l 143 -117 l 190 -72 l 233 -26 q 264 14 258 0 "},"":{"ha":1047,"x_min":125,"x_max":918,"o":"m 918 64 l 844 138 l 769 64 l 843 -10 l 918 64 m 596 57 l 522 131 l 447 57 l 521 -17 l 596 57 m 274 56 l 200 129 l 125 56 l 199 -18 l 274 56 "},"":{"ha":667,"x_min":-17,"x_max":681,"o":"m 153 385 q 117 396 136 396 q 75 389 94 396 q 10 311 10 367 q 67 211 10 253 q 200 174 114 176 l 242 172 q 278 92 256 135 q 329 31 304 54 q 438 -18 381 -18 q 507 14 478 -18 q 533 88 533 40 q 500 172 533 147 l 483 138 q 461 111 469 118 l 449 100 l 436 93 l 422 89 l 410 88 q 290 172 338 88 q 396 189 346 172 q 514 268 465 211 q 563 396 563 325 l 560 425 l 556 444 q 681 508 638 500 l 681 549 q 528 507 626 549 q 394 556 488 556 q 219 488 304 556 q 200 529 200 504 l 203 542 l 213 556 l 228 568 l 250 581 q 311 604 275 594 q 375 619 319 607 l 443 635 l 499 657 q 521 668 511 661 q 549 704 549 686 l 486 732 l 681 732 l 681 775 l -17 775 l -17 732 l 438 731 q 400 699 435 708 l 354 686 l 293 674 l 229 658 l 176 635 l 156 621 l 140 607 l 132 592 l 129 578 l 132 553 l 140 528 l 153 501 l 171 476 q 256 425 208 425 l 271 428 l 290 436 q 360 467 325 457 q 451 479 403 479 q 515 444 500 479 l 519 425 q 442 299 519 350 q 256 249 364 249 q 226 308 243 282 q 153 385 189 368 m 122 325 q 214 242 165 325 l 151 244 l 101 253 l 68 265 q 58 283 58 275 l 63 300 q 76 314 68 311 l 96 322 q 122 325 106 325 "},"":{"ha":340,"x_min":107,"x_max":221,"o":"m 108 619 l 107 325 q 147 269 113 288 l 168 258 q 190 256 176 256 l 203 258 q 204 271 207 263 l 204 507 l 206 522 q 208 546 208 531 l 208 578 q 211 604 211 594 l 211 619 l 213 642 q 214 672 214 663 l 214 699 l 218 753 q 213 777 221 765 q 190 801 204 789 l 174 814 l 160 828 l 144 838 l 133 843 l 125 839 l 119 829 l 118 776 l 115 718 l 108 619 m 108 172 l 107 160 l 107 101 l 113 74 q 133 57 122 63 l 142 53 l 151 50 l 160 44 l 168 40 l 182 32 l 190 29 l 203 32 q 204 44 207 36 l 204 88 q 169 158 204 144 l 156 164 l 136 174 l 126 176 l 119 178 q 108 172 115 178 "},"":{"ha":1000,"x_min":-17,"x_max":1008,"o":"m 99 410 q 133 535 99 506 l 92 532 l 58 526 l 36 518 q 28 507 33 515 q 50 331 28 410 q 149 150 82 217 q 336 74 225 74 q 390 78 363 74 q 526 132 471 90 q 603 269 603 189 l 600 300 l 594 325 q 783 436 663 436 q 857 407 832 431 q 882 346 882 383 q 861 283 882 315 q 770 201 831 238 q 658 164 710 164 q 721 74 689 74 q 865 143 804 74 l 896 178 l 919 214 l 932 247 q 938 283 938 263 q 878 440 938 375 q 742 501 819 504 l 710 500 l 682 496 l 656 489 l 631 479 l 607 467 l 590 454 l 578 440 l 575 432 l 589 354 q 531 426 571 399 q 428 465 490 453 q 496 497 465 479 q 578 576 558 536 q 589 619 589 594 l 583 651 l 569 683 l 546 710 q 518 732 533 724 l 1008 732 l 1008 775 l -17 775 l -17 732 l 238 731 l 228 717 l 224 703 l 231 675 l 251 635 l 256 650 l 269 668 l 278 676 l 290 686 l 303 694 l 318 703 q 386 731 347 719 q 447 739 417 739 q 474 732 467 736 l 504 715 q 528 690 521 701 q 532 668 535 678 q 469 588 526 625 q 314 521 406 544 l 308 518 l 303 518 l 296 515 l 290 514 l 281 511 l 279 507 l 281 497 l 286 483 l 296 465 l 308 444 q 399 431 350 444 q 481 386 447 418 q 518 306 518 350 q 504 228 518 264 q 336 108 458 108 q 167 197 239 108 q 99 410 99 279 "},"":{"ha":628,"x_min":-7,"x_max":636,"o":"m 592 457 l 533 506 l 479 458 l 533 408 l 592 457 m 636 621 l 636 701 l -7 701 l -7 621 l 375 621 l 375 581 l 222 581 q 190 578 200 581 q 142 528 142 564 q 157 485 142 506 l 229 386 q 294 360 249 360 q 354 372 326 365 q 383 383 368 378 q 410 383 399 389 q 428 346 428 375 q 411 315 428 329 q 381 296 404 310 q 313 282 357 282 l 286 282 q 188 333 247 282 q 104 435 121 389 l 74 411 q 104 368 82 394 q 192 268 161 294 q 254 226 222 242 q 368 197 314 197 q 472 242 432 197 q 499 315 499 271 q 497 340 499 333 q 436 424 488 392 q 336 449 396 449 q 286 442 329 449 q 256 440 269 439 q 219 458 222 443 q 218 469 218 465 q 285 500 218 500 l 469 500 l 469 621 l 636 621 m 446 225 l 383 206 l 383 -87 l 446 -149 l 446 225 m 294 218 l 238 236 l 238 107 l 192 107 q 168 94 174 107 q 182 54 163 81 l 247 -32 q 275 -49 254 -49 q 294 4 294 -49 l 294 218 "},"":{"ha":701,"x_min":33,"x_max":664,"o":"m 393 543 q 215 725 393 725 q 88 671 143 725 q 33 544 33 617 q 88 419 33 472 q 215 367 143 367 q 344 415 296 367 q 393 543 393 463 m 553 724 l 144 43 l 144 -36 l 551 646 l 553 724 m 664 165 q 486 347 664 347 q 360 293 415 347 q 304 168 304 239 q 359 43 304 96 q 486 -10 414 -10 q 615 38 565 -10 q 664 165 664 86 m 301 540 q 213 401 301 401 q 128 557 128 401 q 146 646 128 607 q 213 696 168 696 q 301 540 301 696 m 572 164 q 483 25 572 25 q 399 181 399 25 q 417 269 399 231 q 483 319 439 319 q 572 164 572 319 "},"":{"ha":993,"x_min":-1,"x_max":992,"o":"m 667 678 l 657 682 q 394 621 506 682 q 292 479 292 564 q 304 406 292 436 q 373 315 326 353 q 475 271 419 276 l 321 214 l 267 339 q 247 374 256 365 l 221 401 q 188 420 203 415 q 153 425 174 425 q 66 391 104 425 q 28 306 28 357 l 32 271 l 46 240 q 90 213 64 213 l 144 222 q 224 257 183 238 l 251 193 l 199 174 q 158 151 178 165 q 125 101 125 126 q 171 31 125 60 q 278 1 217 1 l 311 7 l 339 22 q 358 47 353 36 q 363 74 363 58 l 358 108 l 349 146 l 657 242 q 686 146 669 182 q 735 69 706 103 q 867 1 794 1 q 911 29 894 6 l 924 61 q 929 99 931 78 l 928 122 l 924 144 q 825 101 888 101 q 787 113 804 104 q 750 140 769 122 q 717 185 726 169 l 692 242 q 847 301 786 257 q 908 396 908 346 q 881 475 908 439 q 811 507 849 507 q 739 493 772 507 q 628 343 628 447 l 628 328 l 629 318 q 606 313 619 313 l 567 313 l 531 311 q 461 319 497 310 q 401 347 419 335 q 349 436 349 383 q 456 549 349 493 q 657 606 564 606 q 728 592 710 606 l 758 606 l 776 615 l 801 632 q 811 650 811 642 l 811 732 l 992 732 l 992 775 l -1 775 l -1 732 l 796 732 l 714 704 l 714 640 l 699 651 l 682 667 l 667 678 m 864 458 q 872 436 872 450 q 813 375 867 400 q 671 332 747 344 q 724 425 671 372 l 753 443 l 781 456 l 808 463 q 839 465 819 465 q 864 458 858 463 m 176 261 l 147 256 l 131 261 l 117 278 l 108 303 q 106 332 106 311 q 133 382 106 382 q 172 353 158 376 q 192 319 182 342 l 210 278 q 176 261 189 264 m 292 79 q 258 51 293 57 l 225 57 q 215 74 215 63 l 219 88 q 232 101 224 96 l 251 113 l 278 122 l 290 97 q 292 79 294 86 "},"":{"ha":743,"x_min":4,"x_max":746,"o":"m 668 457 l 707 515 q 643 524 694 528 q 574 524 585 519 q 525 526 560 529 q 472 521 476 521 q 439 521 460 521 q 290 493 364 518 l 254 500 l 228 511 l 218 517 l 211 524 l 207 529 l 207 535 q 224 561 210 550 q 331 600 251 585 q 365 611 361 610 q 424 619 396 615 l 490 633 l 542 650 l 574 668 q 585 690 585 679 l 514 732 l 746 732 l 746 775 l 4 775 l 4 732 l 486 731 q 446 703 482 717 q 332 675 369 682 l 236 654 l 164 633 q 103 583 103 608 q 113 550 103 567 q 139 518 124 533 q 154 506 144 513 q 236 472 174 486 q 103 378 149 429 q 53 269 53 321 q 118 111 53 182 q 268 21 178 49 q 403 1 331 1 q 599 53 510 1 l 604 101 q 403 51 521 51 q 225 99 299 51 q 151 213 151 146 q 178 311 151 265 q 299 419 217 381 q 486 458 381 458 l 668 457 "},"":{"ha":419,"x_min":4,"x_max":418,"o":"m 19 314 l 407 314 l 390 371 l 4 371 l 19 314 m 31 142 l 418 142 l 401 199 l 15 199 l 31 142 "},"":{"ha":310,"x_min":143,"x_max":275,"o":"m 203 393 l 260 451 l 203 510 l 143 451 l 203 393 m 264 14 q 275 42 275 29 q 217 161 275 106 l 163 103 l 203 43 l 203 -3 l 143 -74 l 143 -117 l 190 -72 l 233 -26 q 264 14 258 0 "},"":{"ha":8,"x_min":-328,"x_max":-210,"o":"m -269 -147 l -210 -89 l -269 -31 l -328 -89 l -269 -147 "},"":{"ha":694,"x_min":0,"x_max":0,"o":""},"":{"ha":799,"x_min":3,"x_max":829,"o":"m 3 732 l 124 731 q 68 507 68 640 q 133 279 68 372 q 292 186 199 186 q 414 221 356 186 q 501 313 467 253 l 501 144 q 606 75 543 94 l 600 186 q 696 417 643 338 q 810 507 757 507 q 829 535 829 513 l 824 557 q 810 564 818 564 q 743 553 774 564 q 600 396 640 515 l 600 499 q 601 553 600 519 q 603 607 603 593 l 604 693 l 606 732 l 829 732 l 829 775 l 3 775 l 3 732 m 414 335 q 278 256 353 258 q 222 265 254 254 q 178 299 200 275 q 138 403 138 342 q 243 704 138 579 l 151 732 l 592 732 l 508 703 l 504 663 l 501 578 l 501 535 q 444 373 475 411 q 414 335 414 335 "}}}
